<?xml version="1.0" encoding="UTF-8"?>
<svg id="Layer_1" data-name="Layer 1" xmlns="http://www.w3.org/2000/svg" viewBox="0 0 1913.39 2502.99">
  <g>
    <path d="M1911.02,802.57c-3.26-8.67-6.95-18.49-15.48-20.86-9.02-2.5-15.18-1.59-23.8,1.81-4.93-12.63-13.97-21.95-22.74-30.98-7.22-7.43-14.03-14.46-18.46-23.04l-61.07-118.53-39.31-84.39c-3.7-7.94-8.22-15.74-12.6-23.28-9.81-16.89-19.07-32.85-20.54-51.14-.49-6.1,1.67-13.18,3.95-20.67,3.44-11.28,7-22.95,1.91-33.29-.03-.07-.07-.14-.11-.21-3.96-6.97-11.26-14.14-17.12-19.9-1.39-1.37-2.71-2.66-3.87-3.84-16.14-16.46-38.43-10.39-53.91.78-15.12,10.91-25.05,28.28-26.56,46.47-1.33,15.93,3.93,30.78,14.8,41.82,18.16,18.43,45.43,13.77,65.34,10.37.21-.04.41-.07.62-.11l36.44,69.06,28.29,59.87,29.73,62.21s.05.1.08.16l40.37,75.83c4.13,7.77,10.7,14.63,17.05,21.26,10.99,11.48,21.38,22.34,20.94,37.74-1.8,6.16-10.01,15.18-38.35,23.87l-122.22,37.48-65.47,17.91-61.32,18.17c-6.6-17.02-20.85-24.85-40.54-22.1-22.28,3.1-29.33,15.82-38.25,31.93l-.9,1.62c-1.52,2.74-3.48,5.28-5.55,7.98-4.72,6.13-9.6,12.47-9.41,21.48.23,10.73,5.82,21.74,15.33,30.22,11.04,9.85,26.2,15.24,42.44,15.3l-84.58,138.75c-6.8,11.16-13.58,20.83-20.76,31.06-4.72,6.73-9.59,13.68-14.61,21.27l-53.41,80.79c-3.52-5.62-4.64-13.11-3.53-23.11,5.79-52.23,4.5-102.13,2.67-148.77l-3.28-83.86-1.95-96.01c-.15-7.6-.18-15.2-.21-22.55-.1-26.86-.19-52.22-5.96-79.23-4.94-23.13-4.95-45.72-.06-63.7l20.17-27.38c.28-.38.49-.81.62-1.26,5.11-17.6-6.81-35.85-20.71-41.23-17.94-6.94-32.65-3.43-41.98,9.84l-61.23-65.48-33.13-42.97c-5.59-7.25-12.06-14.27-18.32-21.07-12.05-13.08-24.51-26.59-31.93-42.87.3-5.34,2.05-11.38,3.89-17.76,3.71-12.81,7.91-27.33,1.49-41.18-.13-.29-.3-.56-.5-.81l-10.68-13.39,59.83-66.93,47.81-56.13s.05-.06.07-.09l63.87-79.56,23.36-28.48,43.39-47.88s.06-.07.09-.1l31.26-36.98c2.51-2.96,4.73-6.17,6.88-9.27,4.04-5.82,7.89-11.36,13.17-14.84,14.44,21.15,35.37,31.44,56.6,27.65,20.29-3.63,38.54-18.52,46.5-37.93,6.77-16.52,5.05-33.42-4.84-47.59-1-1.43-2.81-2.05-4.47-1.51-1.66.54-2.78,2.1-2.76,3.85.31,30.8-.56,48.83-21.94,61.36-16.93,9.92-37.41,6.49-50.97-8.53-12.45-13.79-12.15-32.9.8-52.45,4.44-6.69,11.93-8.54,17.44-8.92,11.35-.78,24.03,4.11,30.84,11.87,2.72,3.09,6.7,3.57,9.92,1.18,2.91-2.15,4.88-6.41,2.99-9.54l-3.65-6.06c-.3-.5-.71-.92-1.19-1.25-16.84-11.32-44.66-15.2-62.06-2.08-15.66,11.81-22.72,35.38-17.9,57.84l-7.55-1.17c-5.04-.78-7.31,4.22-8.81,7.53-.65,1.43-1.32,2.91-1.97,3.7l-34.38,41.78-50.17,56.94s-.07.08-.1.12l-121.56,149.62-64.18,72.41c-21.38-13.1-47.37-11.48-72.27,4.54l-53.35-67.12s-.04-.05-.07-.08l-27.29-32.55-86.55-108.59-37.65-49.32c10.37-21.87,4.98-46.68-14.4-65.33-6.39-6.15-15.73-9-26.3-8.02-14.07,1.3-28.55,9.18-36.02,19.6-12.88,17.97-10.3,43.61,6.28,62.35,14.26,16.12,34.97,18,55.91,5.28l78.74,99.21s.05.06.07.09l60.46,71.72,38.8,49.2c2.15,2.73,4.85,5.58,7.71,8.59,8.6,9.07,18.33,19.36,16.99,30.01-.84,5.11-2.08,10.27-3.39,15.73-4.06,16.94-8.27,34.46-.76,51.9,6.79,15.79,20.39,27.31,37.3,31.62,16.96,4.32,34.65,1,49.11-9.11l40.59,46.17,55.2,68.35c.06.07.11.13.17.2l57.86,62.7c3.94,4.27,10.28,13.4,6.08,17.42l-57.1,54.74-29.98,30.18s-.08.08-.11.12l-83.75,91.64s-.06.07-.09.1l-65.94,77.34c-4.5,5.28-8.96,10.62-13.28,15.79-22.96,27.49-44.65,53.46-75.12,74.33-1.3.89-2.45,2.42-3.79,4.19-.61.81-1.59,2.1-2.37,2.95l-8.38-6.21c-.33-.24-.69-.43-1.07-.56-17.78-6.12-39.29-2.26-54.8,9.84-12.64,9.86-20.99,25.42-25.53,47.57-3.74,18.25-2.11,31.64,17.55,42.02,10.14,5.35,44.99,20.99,67.61-2.36,19.29-19.91,18.12-49.83,14.56-74.24l66.39-63.47c.12-.11.23-.23.33-.35l46.93-57.2,50.97-60.39,106.07-112.52,46.57-45.21c6.6-6.41,13.01-8.73,18.05-6.54,8,3.47,8.26,8.33,8.7,16.39.1,1.82.2,3.71.41,5.7l10.03,96.3,2.58,180.34v.12l5.03,115.53-3.21,54.12c-1.25,20.95-2.23,37.5-.79,58.39.34,4.94-2.13,10.93-4.74,17.26-3.74,9.07-7.99,19.35-4.31,29.08,3.36,8.88,19.71,14.32,27.3,13.88,13.48-.76,23.91-13.02,25.85-23.95,2.66-14.96-.63-25.95-10.65-35.13l52-78.99c4.64-7.05,9.08-13.65,13.37-20.03,7.39-10.99,14.37-21.37,21.84-33.2l84.3-133.64,43.89,131.1,20.66,62.98,27.97,92c.02.06.04.12.06.18l28.39,79.46,26.3,81.35c-14.26,6.25-25.28,17.17-32.01,31.77-6.43,13.96-8.3,30.4-5.36,46.68l-28.57,10.02c-.12.04-.24.09-.36.14-29.27,13.57-59.02,19.73-90.52,26.25-5.1,1.06-10.22,2.12-15.36,3.21l-69.2,14.78-65.85,13.09c-.11.02-.21.05-.32.08l-83.19,23.81-104.79,30.01s-.07.02-.1.03l-30.8,9.74c-3.81-15.25-15.48-21.28-27.7-25.44-14.52-4.94-29.51-3.84-43.35,3.19-16.65,8.45-30.33,25.24-36.6,44.9-9.3,29.22-.08,52.69,24.68,63.44-3.42,17.04-8.88,33.28-14.17,49.03-2.48,7.39-5.05,15.03-7.4,22.71l-17.67,57.81-50.21,117.38-46.77,116.97c-.02.05-.04.11-.06.16l-39.38,112.22-20.7,38.09c-.51.93-.62,2.03-.33,3.05.3,1.02.99,1.88,1.92,2.39,3.5,1.91,3.14,5.83.16,17.41-3.65,14.2-8.64,33.65,9.37,49.96,7.56,6.85,17.95,10.42,29.42,10.42,5.49,0,11.23-.82,17.02-2.49,16.5-4.75,29.2-14.94,32.35-25.96,3.71-12.97,5.98-38.33-3.77-51.14-14.03-18.45-43.23-19.75-64.03-9.81-.14-2.88,1.7-5.23,4.59-8.61,1.99-2.33,4.06-4.75,5.1-7.71l52.91-150.43,29.77-74.09,29.45-62.23c.05-.12.1-.23.15-.35l41.81-115.76s.03-.07.04-.11l27.33-83.19c28.13,2.65,51.62-7.97,64-28.88l123.32,65.35,31.68,23.71c.2.15.41.28.64.39l2.56,1.25c26.42,12.89,51.42,25.09,72.54,44.7-8.16,14.32-9.15,28.64-2.54,38.79,8.57,13.16,25.1,11.9,38.38,10.89.84-.06,1.66-.13,2.48-.19l45.82,70.37,85.73,150.12c-.32,1.22-.65,2.45-.99,3.7-6.14,22.95-14.55,54.37,12.32,72.99,21.86,15.15,55.82,18.92,75.71-3.91,11.47-13.17,6.72-31.34,2.9-45.95-.83-3.19-1.62-6.2-2.23-9.04-.61-2.88-1.01-5.63-1.4-8.29-1.2-8.18-2.32-15.92-9.26-21.92-7.67-6.64-17.96-7.5-29.88-7.78l12.49-155.71,15.36-93.13,40.34-247.16,7.72-51.5c12.97,4.06,26.27,7.32,39.3,1.63,20.34-8.88,33.97-40.62,34.78-59.48.32-7.46-5.09-13.93-10.32-20.19-3.25-3.88-6.6-7.9-7.47-11.12-5.18-19.24-19.49-22.97-33.16-24.28l-30.59-88.66-24.35-68.05-48.57-154.73-46.23-150.43c-2.41-7.83,1.43-17.88,5.15-27.61,2.47-6.46,4.8-12.56,5.36-18.12l2.15-21.37,80.74-24.49,195.66-58.11c3.36,13.96,11.28,25.27,21.71,30.75,7.71,4.05,15.85,4.43,22.92,1.05,21.06-10.06,28.26-33.48,18.34-59.68l-.58-1.54h.01ZM1686.76,426.1c-.36,6.41-3.57,12.39-9.26,17.29-.73.63-1.21,1.5-1.35,2.45-1.72,11.64-7.91,16.33-20.06,15.23-20.46-1.86-32.74-9.36-37.53-22.93-4.37-12.37-2.23-26.94,5.72-38.99,7.56-11.45,18.97-18.41,31.32-19.1.28-.02.55-.02.83-.02,5.39,0,9.74,2.96,12.49,5.52,5.49,5.1,9.28,12.89,9.44,19.4.02.98.4,1.91,1.06,2.63,5.1,5.52,7.71,12.1,7.34,18.53h0ZM855.97,148.29c-5.2,7.32-13.61,15.92-24.2,15.34-9.7-.53-17.39-5.37-22.85-14.38-5.09-8.41-12.01-24.38-1.13-36.92,6.16-7.09,15.57-12.14,23.42-12.56.38-.02.75-.03,1.13-.03,4.36,0,8.1,1.41,11.11,4.21,9.91,9.21,24.71,27.21,12.53,44.33h-.01ZM1149.2,476.79c-3.28,10.87-11.26,21.13-16.99,27.9-14.03,16.6-34.17,9.71-44.93,4.12-14.75-7.65-21.33-23.56-18.55-44.78,2.47-18.84,10.18-32.6,21.69-38.74,8.27-4.41,18.14-7.43,27.01-7.43,7.45,0,14.2,2.12,18.72,7.32-.28,2.11-2.67,7.17-3.5,8.92-.4.85-.74,1.56-.95,2.06-.63,1.47-.63,3.08-.01,4.53,1.44,3.39,5.74,5.01,9.9,6.58.85.32,1.94.73,2.6,1.03,6.52,8.73,8.17,18.05,5.02,28.48h0ZM967.64,1115.87c-.75,14.29-6.7,26.67-16.32,33.96-8.79,6.66-19.15,6.4-26.29,5-11.28-2.2-22.19-8.71-29.32-17.21l16.04-1.77c1.66-.18,3.03-1.39,3.43-3.02.4-1.63-.26-3.34-1.64-4.28-8.55-5.78-17.09-15.57-9.22-29.43.03-.05.05-.09.08-.14,8.61-16.69,27.12-30.19,49.26-23.14,9.45,9.31,14.8,24.55,13.99,40.03h-.01ZM1330.51,724.1c-2.49.36-4.68-.41-6.89-2.43-4.36-3.99-8.72-22.66-5.34-33.99,1.86-6.23,5.06-6.74,6.12-6.91.36-.06.72-.08,1.09-.08,3.5,0,7.4,2.59,8.59,8.73.37,1.93,2.11,3.3,4.03,3.23h.43c3.96-.15,8.05-.28,9.04.78,3.36,3.62,3.26,9.55-.28,15.48-3.83,6.43-10.53,14.26-16.78,15.18h-.01ZM1367.12,1295.88c-2.41,10.93-7.24,12.99-12.11,13.58-3.24.4-7.1-.95-8.98-3.13-1.32-1.53-1.67-3.4-1.05-5.69,2.92-10.92,7.25-19.54,10.79-21.51.85-.4,3.13-1.34,6.03,1,4.05,3.25,6.48,10.47,5.31,15.75h0ZM908.34,2271.68c5.36-7.08,13.77-11.55,23.07-12.28.9-.07,1.8-.11,2.69-.11,8.59,0,16.82,3.24,22.89,9.09,4.38,4.22,7.43,21.42,4.42,32.57h0c-2.45,9.07-9.73,16.35-20,19.97-11.27,3.97-23.75,2.7-31.8-3.24-5.2-3.83-8.33-9.23-9.31-16.05-1.6-11.17,3.04-23.36,8.04-29.95ZM1138.28,1700.38c-1.38.46-2.4,1.64-2.66,3.08s.28,2.91,1.41,3.83c4.02,3.27,5.3,4.86,6.03,5.99h0c.25.39,1.01,1.57-.78,4.3-4.97,7.53-21.58,15.19-33.49,13.33-.64-.6-1.78-2.15-2.49-3.11-2.38-3.24-4.62-6.3-8.15-5.45l-11.29,2.69c-6.83-2.12-11.85-6.45-14.92-12.88-4.39-9.2-4.13-21.84.67-32.98,8.83-20.48,28.35-39.54,52.06-35.91,16.52,2.52,25.09,11.96,26.99,29.7,1.75,16.38-1.75,23.56-13.38,27.42h0ZM1425.6,1885.49c-3.65,3.39-12.35,2.14-16.99-.26-3.28-1.7-5.55-5.06-6.06-9-.62-4.74,1.32-9.54,5.31-13.17h0c6.39-5.8,16.02-2.11,20.52,2.78,3.8,4.14,3.26,14.01-2.78,19.64h0ZM1613.5,2120.23c4.35,0,8.44.75,11.84,2.48,9.77,12.06,19.39,42.61,13.11,58.88-3.05,7.91-8.68,12.98-16.72,15.05-12.81,3.29-28.11-2.03-36-8.71-9.06-7.68-14.87-18.64-15.54-29.32-.58-9.21,2.6-17.88,9.2-25.07,6.28-6.85,21.32-13.3,34.11-13.3h0ZM1671.02,1555.28l-45.78,279.52-15.5,79.97c-.03.13-.04.26-.06.39l-12.46,132.06c0,.05,0,.1-.01.15l-3.15,56.37c-.24,4.35-3.59,6.77-6.39,7.52l-.13.04c-4.41,1.19-7.24,1.41-8.67-.98l-86.75-145.02c-5.16-8.62-10.89-17.03-16.43-25.17-12.06-17.7-23.45-34.42-29.98-53.78-.94-2.8-.35-6.97.23-11.01.91-6.37,1.93-13.59-2.53-18.85-5.09-6-11.77-7.55-17.66-8.93-3.8-.89-7.4-1.73-10.59-3.61l-71.82-42.28-46.06-29.84c-.09-.06-.18-.11-.27-.16l-131.43-70.9c-1.14-13.4.97-24.91,4.92-26.14l98.21-30.47,80.23-24.13,70.62-17.17,63.34-12.15,75.65-15.9c.08-.02.16-.04.24-.06l46.14-12.76,63.46-17.95c1.35,1.17,3.33,6.95,2.63,11.21v.03ZM1719.31,1462.61c8.28,4.96,19.36,23.58,22.35,34.91,3.13,11.9-5.84,25.54-12.38,35.5l-.59.89c-3.99,6.07-11.39,10.35-18.86,10.9-4.54.34-11.04-.52-16.42-6.41-2.09-3.55.31-9.98,2.07-14.7,1.09-2.92,2.03-5.44,2.16-7.6.11-1.8-1-3.45-2.69-4.03-6.31-2.15-11.03-3.47-14.19-.92-2.75,2.22-3.48,6.66-4.31,14.16-11.44-8.02-8.05-25.19-4.67-35.41,4.23-12.84,13.3-23.58,23.66-28.03,7.77-3.34,15.8-3.1,23.88.72v.02ZM1552.46,940.71c-5.31,13.87-11.58,23.61-24.93,26.05-11.73,2.15-22.02-2.11-32.37-13.37-7.67-8.35-10.57-15.11-2.74-24.99q5.22-6.59,0,0c.43-.54.91-1.29,1.52-2.23.25-.38.6-.93.97-1.48l5.7,4.6c1.29,1.04,3.09,1.17,4.51.32s2.18-2.49,1.89-4.13c-.65-3.73-1.06-12.7,9.15-15.25,1.29-.32,2.34-1.28,2.79-2.54.45-1.26.23-2.67-.57-3.74l-4.41-5.9c12.44-7.18,24.21-6.81,30.89-4.06,3.22,1.33,4.21,2.78,4.33,3.14l-1.76,12.33c-.17,1.2.21,2.42,1.04,3.31,8.62,9.24,6.94,20.31,4.01,27.96l-.02-.02ZM1900.95,825.95c-.35,5.47-2.4,15.45-12.22,20.78-3.38,1.83-6.92,1.96-10.53.39-5.35-2.33-9.68-7.97-10.78-12.09-2.03-7.66-1.32-19.92,4.85-23.92,2.94,1.36,8.57,3.48,12.47,2.04,1.74-.64,3.03-1.92,3.65-3.61.29-.8.47-1.71.68-2.76.45-2.27,1.02-5.16,2.82-7.77,5.99,6.12,9.71,16.82,9.07,26.93h0Z"/>
    <path d="M415.84,402.6c5.17,3.33,10.52,6.78,15.85,10.31l47.62,31.57,71.09,52.71,106.91,75.78c8.27,5.86,13.81,13.99,18.7,21.15,6.7,9.82,13.58,19.91,26.07,19.91,2.48,0,5.18-.4,8.14-1.27,10.29-3.04,14.23-13.85,16.84-21.01,5.95-16.32,1.19-30.15-12.41-36.1-14.51-6.34-26.59-2.61-34.39,10.5-33.99-17.8-62.52-39.59-92.67-62.61-9.07-6.93-18.46-14.1-27.92-21.08l-66.48-49.05s-.1-.07-.15-.11l-56.75-37.97c-25.38-16.98-48.03-33.98-73.43-55.1l-60.46-50.29c10.74-14.54,28.12-44.62,10.59-69.14-14.61-20.44-40.99-29.23-64.16-21.38-22.47,7.62-37.53,28.06-38.35,52.1-.59,17.14,3.96,31.41,13.14,41.26,7.9,8.48,18.84,13.39,32.55,14.63l-23.78,118.26-23.27,120.24c-9.83-5.47-18.37-10.07-27.49-6.33-15.16,6.24-21.22,26.36-17.17,40.53,3.84,13.45,16.34,26.34,30.61,24.63,12.2-1.46,22.98-7.47,32.06-17.88,7.2-8.25,5.07-18.6,3.36-26.91-.93-4.5-1.8-8.75-1.26-12.08l20.26-124.6,21.21-107.37c.96-4.84,2.01-9.33,4.45-11.16,1.65-1.23,6.27-2.56,7.83-2.08l34.55,142.6,33.61,146.11,31.86,135.15c1.44,6.12,3.07,12.21,4.64,18.1,5.36,20.12,10.44,39.16,8.88,59.79-33.22,12.23-53.06,39.33-51.96,71.29.47,13.62,5.76,25.39,14.9,33.14,7.14,6.05,16.29,9.23,26.27,9.23,2.2,0,4.43-.15,6.69-.47l.34-.05c13.16-1.81,31.18-4.29,42.37-14.73,17.89-16.7,24.07-47.41,14.38-71.44-.11-.27-.25-.53-.41-.77l-15.83-23.06c-.67-.97-1.73-1.6-2.91-1.71-12.05-1.12-13.11-7.09-15.04-17.92-.49-2.76-1-5.62-1.76-8.58-24.49-95.25-44.06-175.68-60-258.61-.01-.08-.03-.15-.05-.22l-17.76-70.46-28.42-128.63c19,11.53,35.23,23.89,51.73,39.36,18.09,16.95,36.87,29.05,56.76,41.86l.02-.04ZM695.14,580.39c2.87-5.19,6.58-8.22,9.92-8.22.38,0,.75.04,1.12.12,2.94.63,4.92,1.95,5.88,3.91,1.18,2.4.89,5.83-.8,9.39-1.15,2.43-4.2,8.89-6.67,10.43-4.13,2.57-9.15-.05-10.92-2.03-2.9-3.25-2.58-6.3,1.46-13.6h0ZM194.74,586.91c-11.16.38-14.99-9.76-16.13-14.15-.9-3.5-.2-9.26,2.89-13.04,1.8-2.2,4.1-3.31,6.86-3.31.21,0,.43,0,.65.02,7.03.43,13.79,6.48,20.33,12.34,1.74,1.56,3.52,3.15,5.32,4.65-5.81,11.24-14.83,13.29-19.91,13.48h0ZM281.58,284.76c-11.02-4.13-19.08-2.71-26.96,4.72-15.97-2.61-30.28-16.66-27.49-43.04,1.03-9.75,6.42-19.45,14.42-25.93,4.74-3.84,12.33-8.12,22.61-8.12,1.35,0,2.74.07,4.18.23,9.51,1.04,27.45,9.12,31.81,17.74,6.57,12.99,5.01,33.95-18.57,54.4h0ZM435.91,864.03c-.06.22-.09.45-.11.68-1.41,18.46-15.25,31.29-37.98,35.21-11.8,2.03-19.6,1.82-26.99-5.13-4.68-4.4-9.86-13-10.42-24,1.93-26.47,22.59-48.61,50.51-54.31,20.67,11.33,29.78,28.6,25,47.56h-.01Z"/>
    <path d="M759.05,1677.4h-.32c-6.89.14-16.75,3.38-25.73,11.73-3.41-6.25-9.69-8.34-14.98-10.1-2.1-.7-4.08-1.36-5.82-2.22l-115.47-57.47c-10.22-5.09-20.26-10.94-29.96-16.61-18.74-10.94-38.08-22.22-60.86-29.42,4.04-15.53,6.95-29.34,1.07-45l-12.35-32.87c-.44-1.18-1.41-2.07-2.61-2.43-.38-.11-.85-.24-1.41-.39-7.94-2.17-12.5-4.3-13.56-6.31-.13-.24-.16-.4-.04-.77l36.23-106.03,36.81-94.45c1.86-4.78,3.74-9.77,5.56-14.6,6.67-17.72,13.57-36.03,22.61-52.28,2.75-1.68,6.1-3.08,9.64-4.56,9.25-3.86,19.73-8.24,22.24-19.57l.06-.27c2.5-11.29,7.16-32.31-8-39.11-7.15-3.21-14.64-3-21.68.6-9.15,4.67-16.79,14.8-20.02,26.29l-54.43,6.6c-.06,0-.13.02-.19.03l-109.41,18.75-74.94,12.92-55.82,8.02-101.96,7.42c-1.85.13-3.98.92-6.46,1.82-7.69,2.82-10.32,3-11.23.75-8.62-21.33-23.07-30.15-42.95-26.19l-22.14,4.41c-1.09.22-2.03.88-2.61,1.82-14.22,23.21-17.98,41.1-11.46,54.7,7.4,15.44,26.36,23.22,40.41,21.8,19.33-1.94,27.08-14.34,33.3-24.3,5.09-8.15,9.11-14.58,17.88-15.52l150.39-16.09c.07,0,.15-.02.22-.03l78.17-12.83,109.2-18.55c3.28-.56,6.53-1.15,9.76-1.74,17.68-3.23,34.44-6.29,55.18-3.42l-32.8,92.19-31.62,80.09c-.03.07-.05.14-.08.21l-32.7,98.8c-4.22,12.74-5.41,13.17-19.98,18.5l-1.95.71c-34.63,12.71-54.45,56.86-41.59,92.63,5.04,14.01,16.08,24.58,30.3,29.01,14.78,4.61,30.96,2.04,43.3-6.87l24.72-17.85c21.5,5.19,39.65,16.27,57.22,26.99,9.52,5.81,19.37,11.82,29.68,16.87,11.42,5.59,22.98,10.9,34.16,16.02,28.48,13.07,55.39,25.41,81.72,42.74,2.13,1.41,4.27,2.59,6.33,3.73,8.58,4.76,13.76,7.64,11.97,20.19-1.84,12.93,3.94,26.76,14.07,33.62,7.07,4.79,14.1,7.21,20.55,7.21,5.34,0,10.28-1.66,14.52-4.99,15.36-12.07,21.68-33.74,16.49-56.55-2.34-10.29-17.63-17.79-26.66-17.79h.03ZM590.15,1168.55c1.38-.4,3.6-.06,5.17,1.38,1.63,1.49,2.19,3.87,1.61,6.86h0c-1.54,8.04-4.1,13.1-5.96,16.8-.3.59-.58,1.15-.84,1.68-.99,2.04-4.52,3.82-7.5,3.82h-.2c-1.76-.05-2.53-.67-2.89-1.17-.68-17.95,2.6-27.03,10.6-29.37h.01ZM128.54,1256.42c-1.58,10.67-9.82,19.04-16.8,22.3-10.28,4.8-21.24-1.53-27.5-8.4-2.79-3.06-4.13-7.7-3.79-13.07.36-5.63,2.59-11.45,5.62-14.88.59.3,1.26.67,1.75.94,2.84,1.57,5.08,2.8,7.47,1.75,1.24-.55,2.15-1.63,2.47-2.97l2.47-10.11c.5-2.04,1.71-3.37,3.82-4.19,4.92-1.92,12.77-.17,17.01,2.68,9.31,6.25,8.34,20.24,7.49,25.96h-.01ZM493.96,1553.44c-1.65,13.67-9.25,26.18-21.42,35.24-8.32,6.19-24.65,15.41-40.6,7.62-13.2-6.45-20.75-20.05-20.19-36.39.88-25.65,17.69-48.6,41.84-57.11.12-.04.25-.06.39-.06,1.7,0,5.1,2.71,6.62,3.92,1.66,1.33,2.98,2.38,4.38,2.85,1.29.43,2.71.18,3.76-.68,4.29-3.48,7.7-5.06,10.45-4.87,1.06.08,2.45.32,3.05,1.06,1.07,1.31.65,4.87.34,7.46-.1.85-.2,1.68-.26,2.45-.09,1.04.24,2.08.9,2.88,8.45,10.25,12.26,22.91,10.73,35.62h.01ZM769.93,1724.55c-2.83,6.83-7.68,11.73-13.31,13.45-11.17,3.4-18.57-7.67-20.4-13.57-3.4-10.91.12-20.2,10.44-27.58,3.62-2.59,7.49-3.97,10.99-3.97.96,0,1.9.1,2.79.32,3.76.9,6.9,3.69,9.33,8.29,3.36,6.37,3.42,15.21.16,23.07h0Z"/>
    <path d="M427.71,2011.39c-11.81-9.26-26.64-12.82-41.91-10.1-24.02-16.17-48.57-24.59-74.52-33.49-4.19-1.44-8.39-2.88-12.62-4.36l-112.25-39.42c-8.89-3.12-17.61-6.68-26.04-10.12-21.23-8.66-43.15-17.61-68.6-19.77-.19-21.1-6.23-37.8-17.99-49.69-10.18-10.29-27.93-18.12-54.67,3-19.55,15.44-24.05,34.81-13.74,59.23,8.3,19.66,20.05,27.69,40.57,27.72h.14c20.01,0,30.38-7.24,42.21-20.6,7.02-3.59,25.52-.08,36.5,3.95l200.71,73.69c15.74,5.78,29.93,11.46,43.05,21.76-9.28,15.83-15.72,32.33-5.68,47.2,2.68,3.97,6.23,7.13,9.67,10.19,4.9,4.36,9.54,8.5,12.33,15.02l-96.49,324.32c-1.71,4.14-4.96,7.52-8.4,11.09-6.85,7.12-14.62,15.18-9.64,30.19.61,1.86,1.14,4.2,1.7,6.69,2.25,10.07,5.34,23.86,19.51,28.39,9.5,3.04,19.62,4.56,30.23,4.56,4.92,0,9.95-.33,15.06-.99,1.21-.16,2.28-.86,2.9-1.91,16.94-28.35,14.07-61.81-6.99-81.37-.4-.37-.86-.65-1.37-.83l-21-7.49,67.23-234.62c.68-2.37,1.36-4.78,2.04-7.22,6.02-21.44,12.23-43.6,25.86-59.75,2.43-.08,5.29.19,8.3.46,9.07.84,20.35,1.89,26.86-6.81,5.1-6.81,10.87-16.48,10.25-30.86-.85-19.66-9.3-37.18-23.2-48.07h-.01ZM61.63,1915.06c-6.9,5.16-21.2,6.48-30.68.13h0c-9.63-6.45-16.26-22.71-14.18-34.8,2.48-14.39,18.75-27.68,32.92-27.68.98,0,1.94.06,2.9.19,12.7,1.74,18.86,17.84,20.51,27.08,2.01,11.32.06,26.47-11.46,35.08h0ZM314.47,2418.31c13.74,4.29,17.56,18.77,18.61,27.01,1.89,14.81-2.39,27.68-6.16,30.04-4.58,2.86-29.28-.35-35.54-8.51-3.46-4.51-5.36-11.1-3.73-14.9l5.59,2.25c3.15,1.27,5.23.46,6.42-.44,2.84-2.15,2.44-6.1,2.27-7.79-.35-3.49-3.72-4.84-6.42-5.93-.95-.38-2.5-1.01-3.04-1.43-1.24-2.81.41-7.62,4.15-12.08,4.56-5.43,12.15-10.01,17.83-8.23h.02ZM426.03,2079.19c-13.23,8.28-26.34,2.86-40.08-16.56-1.28-1.81-2.56-3.46-3.68-4.92-5.59-7.25-8.14-10.55-3.62-20.9.78-1.79,1.35-3.89,1.94-6.12.85-3.18,1.92-7.13,3.38-8.43,3.97-3.51,8.72-5.36,13.53-5.36,1.61,0,3.22.21,4.82.63,17.52,4.61,29.05,22.69,31.38,38.16,1.64,10.86-1.16,19.42-7.67,23.5h0Z"/>
  </g>
  <path d="M988.08,1215.42c-6.18-2.62-11.62-6.65-17.38-10.92-8.74-6.48-17.78-13.18-29.89-14.96-15.09-2.21-40.96,13.27-49.22,24.18l-.39.51-.18.62c-4.99,17.1-6.89,47.55,4.53,61.74l.33.41,42.4,28.68,54.34-26.42-2.51-62.97-2.04-.87h0Z"/>
  <g>
    <path d="M1672.18,1926.54l-32.89-47.32,2.45-54.92c2.17-48.72-19.22-91.81-58.68-118.22-7.82-5.23-6.55-18.12-3.83-38.72,2.44-18.5,5.48-41.53-.7-64.77-9.5-35.73-23.55-61.76-42.97-79.6l-47.56-43.68c6.7-32.9,5.27-65.37-4.15-94.1-10.1-30.81-29.26-56.3-55.47-73.89-1.59-32.97-16.26-66.67-40.49-92.86-24.46-26.43-55.68-42.67-88.44-46.11,2.14-19.91,1.93-42.14-10.49-61.47-22.79-35.47-52.76-60.68-86.66-72.88-35.29-12.71-73.55-10.72-110.64,5.75-.5.22-.96.52-1.36.89-35.65,32.79-39.3,104.87-18.66,145.01,12.09,23.51,32.41,38.52,54.06,54.17-15.56,22.86-21.06,51.75-15.49,81.96,6.36,34.51,26.37,65.57,53.78,83.71-2.6,37.32,3.94,69.46,19.95,98.16,14.28,25.58,36.6,49.04,68.17,71.61-33.81,80.8-39.13,144.7,35.08,210.77-5.95,36.66-3.61,74.77,6.66,107.64,11.5,36.84,32.4,65.88,60.55,84.21-12.38,79.77,15.07,144.06,75.61,176.74,2.21,1.19,4.43,2.4,6.65,3.61,24.21,13.21,49.25,26.87,79.32,26.87h.2c37.99-.08,77.26-14.12,105.06-37.58,33.32-28.11,57.3-64.49,67.51-102.44,9.23-34.31,4.13-72.94-16.06-121.58-.14-.33-.31-.64-.51-.94v-.02ZM1249.34,1304.04c-.19-.31-.38-.62-.58-.93,30.6-10.49,57.46-14.89,81.95-13.47,28.99,1.7,53.96,11.49,76.25,29.92-.33,28.85-11.75,57.08-33.98,83.95-13.27,16.04-31.17,26.82-51.79,31.16-19.61,4.13-40.83,2.42-61.38-4.96-7.62-2.74-15.22-4.86-22.56-6.92-18.21-5.1-35.46-9.92-52.4-23.46,7.23-39.85,28.72-72.76,44.8-78.88,6.07-2.31,11.69-1.27,17.17,3.17,1.55,1.25,3.69,1.47,5.45.55,1.77-.92,2.82-2.79,2.68-4.78-.48-7.05-2.98-11.09-5.63-15.36h.02ZM1090.25,1182.08c-23.27-46.96-10.74-97.43,12.86-121.08,5.77-5.79,18.38-13.65,44.25-13.65,9.56,0,20.92,1.07,34.42,3.72,31.15,6.11,65.97,31.06,84.67,60.66,8.72,13.8,17.82,34.82,13.29,58.26-27.75-.33-54.89,3.73-78.71,11.81-27.79,9.43-49.74,23.74-65.31,42.57-16.45-9.9-35.59-22.34-45.47-42.28h0ZM1275.79,1188.72c-5.64,17.25-19.33,33.66-37.56,44.71-16.62,10.07-34.41,13.98-47.59,10.47l-37.33-9.94c24.09-28.88,77.96-48.93,122.48-45.24ZM1167,1385.9c-15.34-12.14-26.84-28.79-33.43-48.5-7.06-21.09-7.71-44.24-1.83-65.25l10.16-19.58,44.35,10.33c19.19,4.47,44.64-.48,64.83-12.61,22.45-13.49,35.77-36.5,46.61-59.78,22.91.57,48.08,12.72,69.54,33.7,21.6,21.11,35.59,47.21,38.73,71.61-26.54-17.41-57.78-25.48-93.02-24.03-33.55,1.38-69.07,11.54-102.74,29.38-1.56.83-2.57,2.42-2.65,4.19-.3,6.54-3.79,10.56-8.22,15.65-1.64,1.89-3.34,3.84-4.97,6.05h0c-10.92,14.74-16.73,30.41-22.89,47-1.44,3.87-2.9,7.83-4.46,11.83h-.01ZM1181.7,1420.99c1.29.73,2.55,1.45,3.81,2.16,14.18,8.07,26.42,15.03,43.43,18.12,8.72,1.58,17.22,4.27,26.22,7.12,14.96,4.73,30.42,9.62,46.9,8.96,64.03-2.58,110.35-48.84,125.18-124.32,37.9,33.7,53.05,84.4,42,141.02-25.4-7.27-55.61-4.83-89.91,7.27-38.36,13.54-69.94,35.05-85.34,46.66-.24.18-.47.39-.68.61l-30.65,33.45c-54.18-36.24-79.43-80.14-80.96-141.05h0ZM1347.07,1528.03c-1.96-5.56-2.55-8.35-2.7-9.71,41.37-21.92,87.38-41.38,120.09-25.33-12.73,24.97-25.24,45.24-43.26,62.16-36.01,33.81-82.08,39.36-140.76,16.91,3.6-9.48,12.02-16.06,23.68-18.31,1.8-.35,3.26-1.65,3.82-3.4,5.68-17.96,23.45-17.57,33.53-15.74,1.75.32,3.54-.32,4.7-1.68,1.16-1.36,1.5-3.22.91-4.91h-.01ZM1248.22,1688.31c-3.32-28.28,3.21-60.28,20.53-100.43,3.91,1.35,7.76,2.72,11.53,4.07,24.02,8.58,46.71,16.68,72.51,13.49,60.75-7.52,98.6-37.62,129.56-103.44,21.23,13.57,39.54,31.2,53.18,51.25,15.59,22.93,24.8,48.11,27.37,74.86l-5.12,55.33c-28.8-22.47-61.15-31.47-106.19-29.9-45.15,1.58-82.38,12.25-113.82,32.64-.73.48-1.33,1.13-1.73,1.91l-41.35,80.51c-27.72-23.9-42.94-50.22-46.47-80.3h0ZM1551.27,1702.8c-3.99,20.73-17.21,37.32-31.17,54.86l-.65.81h0c-24.01,30.16-58.03,47.73-98.39,50.82-36.71,2.8-75.82-6.85-110.6-27.23,1.24-3.02,2.46-6.03,3.68-9.02,20.51-50.41,38.23-93.95,89.23-90.52,1.28.08,2.55-.33,3.54-1.15,11.05-9.21,23.83-9.56,38.64-9.96,2.96-.08,6.02-.17,9.14-.32,40.86-2.05,72.49,8.32,96.58,31.72h0ZM1311.29,1885.38c-9.09-34.3-10.97-62.61-5.55-82.52,10.65,7.62,22.69,10.91,34.41,14.1,4.03,1.1,8.2,2.24,12.17,3.53,44.57,14.49,90.92,11.59,130.52-8.16,37.78-18.85,67.92-52.3,85.38-94.61,36.13,24.92,55.38,62.37,52.99,103.59-.32,5.53.44,11.12,1.18,16.52,1.21,8.9,2.37,17.37-.56,26.42l-60.2-28.24c-.38-.18-.77-.31-1.18-.38-17.18-3.3-35.91-2.39-54.03-1.51-4.93.24-9.58.46-14.21.61-22.39.7-55.26,18.52-83.73,45.4-27.92,26.36-45.66,55.13-49.79,80.32-23.45-16.97-38.22-40.47-47.39-75.08h-.01ZM1575.06,1959.04c-34.38,35.75-76.12,50.34-120.72,42.19-2.29-.42-4.65-.84-7.08-1.26-24.08-4.25-53.91-9.52-69.32-25.73-1.19-25.43,14.84-49.76,28.67-65.83,17.37-20.19,41.35-38.82,64.14-49.83,18.53-8.95,46.56-11.24,74.98-6.11,29.34,5.29,54.2,17.66,68.5,34.03,3.33,28.35-19.23,51.81-39.17,72.54h0ZM1670.02,2038.74c-6.65,33.72-25.68,64.7-58.17,94.73-21.47,19.84-54.89,33.21-89.42,35.77-24,1.79-44.58-8.61-66.37-19.61-3.2-1.62-6.4-3.23-9.62-4.81-43.85-21.51-69.5-58.79-74.17-107.81-.35-3.71-.98-7.31-1.59-10.8-1.81-10.36-3.4-19.48,1.97-29.6,17.34,11.42,36.87,15.79,55.81,20.04,3.23.72,6.45,1.44,9.65,2.2,12.47,2.94,24.84,4.39,37.03,4.39,43.93,0,85.33-18.89,119.28-55.08,18.17-19.36,31.26-37.17,38.65-62.9l18.55,24.76c19.07,39.28,25.09,74.85,18.41,108.72h-.01Z"/>
    <path d="M1139.86,958.76c1.35-24.9-12.87-47.95-25.42-68.29l-1.59-2.58c-9.24-15.01-21.64-25.46-37.92-31.96-13.17-5.25-28.96-7.82-48.26-7.86-16.63-.02-21.05.32-34.18,9.68-18.34,13.07-39.12,27.89-45.75,48.69-8.74,27.41-1.25,50.42,7.16,71.65,11.79,29.72,30.03,45.62,59.16,51.54,1.96.4,3.92.81,5.9,1.22,12.07,2.53,25.15,5.26,38.79,5.26,8.09,0,16.39-.96,24.79-3.5,33.94-10.27,55.37-37.88,57.32-73.85h0ZM1030.96,1012.71c-4.32-1.04-8.4-2.02-12.5-2.74-23.42-4.12-37.73-17.28-47.85-43.98-8.03-21.19-13.34-38.99-2.98-59.07,4.64-9,18.24-30.12,44.18-31.97,1.33-.09,2.57-.72,3.43-1.73s1.3-2.33,1.19-3.65c-.06-.74-.12-1.42-.17-2.05-.09-1.03-.19-2.17-.2-2.85,1.39-.71,4.73-.42,6.21.91,1.13,1.02,2.67,1.46,4.17,1.21,34.38-5.81,64.92,12.61,79.68,48.05.11.26.24.51.39.74,14.54,23.07,17.2,43.4,8.38,63.97-7.96,18.57-26.06,32.2-48.4,36.46-12.15,2.32-24.04-.54-35.53-3.31h0Z"/>
    <path d="M1022.72,1692.44c-4.57-6.19-8.89-12.04-11.1-18.21-12.22-34.15-29.19-68.29-69.85-87.45,1.66-20.65-2.78-39.82-13.22-57.05-9.76-16.1-24.72-29.98-43.34-40.21l-11.86-29.89c-10.61-26.74-27.46-41.71-51.53-45.77-6.99-1.18-7.93-5.53-9.01-18.68-1.29-15.66-3.05-37.11-28.07-54.36-28.63-19.75-62.35-13.4-85.21-6.92-2.98.84-5.9,1.54-8.72,2.22-11.86,2.85-23.05,5.53-31.3,17.53-8.81,12.82-11.6,27.75-8.07,43.18,5.25,22.96,24.24,46.01,51.08,62.19l-5.7,34.32c-.04.27-.07.55-.07.82.01,28.19,17.79,52.57,46.64,64.38-1.11,38.33,12.4,69.33,38.27,87.56,2.11,1.49,4.25,2.68,6.13,3.74,6.46,3.61,9.13,5.11,7.55,13.6-6.04,32.57,4.33,64.1,30.01,91.31-1.64,24.41,2.71,49.64,12.33,71.33,11,24.81,27.93,43.07,48.95,52.8,16.69,7.72,34.46,11.64,52.04,11.64,11.29,0,22.5-1.61,33.3-4.86,27.93-8.41,51.16-27.24,65.42-53.02,21.17-38.28,9.82-79.41.7-112.45-3.04-11.01-9.59-19.89-15.38-27.72v-.03ZM950.57,1749.25c-17.85,9.61-37.04,14.01-55.48,12.71-17.47-1.23-34.36-7.58-49.05-18.4,4.92-20.37,15.02-38.15,29.34-51.56,15.33-14.36,34.5-22.67,55.44-24.03,21.09-1.37,41.57,8.13,59.05,18.05,2.12,26.78-11.1,48.04-39.3,63.23h0ZM670.21,1391.75c-1.67-6.03-6.74-24.4,22.35-35.38,1.56-.59,3.11-1.18,4.65-1.77,14.71-5.62,27.95-10.67,42.33-10.67,5.22,0,10.59.67,16.23,2.21,25.11,6.88,41.4,31.9,38.28,57.9l-19.6,3.88c-5.21,1.03-9.43,2.37-13.52,3.67-4.95,1.57-9.62,3.05-15.72,3.86-12.33,1.65-20.3,11.92-27.33,20.99-1.58,2.04-3.11,4-4.64,5.85-20.8-11.03-37.5-30.52-43.03-50.55h0ZM779.54,1425.19c-11.7,14.63-26.34,21.68-43.73,21.01,2.74-9.54,16.14-11.33,20.64-11.66.43-.03.85-.12,1.25-.25,3.69-1.26,6.85-2.86,9.91-4.41,3.96-2,7.58-3.84,11.93-4.69ZM725.66,1521.71c-9.31-12.81-12.34-29.74-7.71-43.14.69-1.99,1.23-3.8,1.71-5.4,1.38-4.61,2.08-6.75,3.96-8.35.96-.04,2.96.12,4.61.26,13.47,1.12,44.71,3.71,76.82-37.25,16.06,1.55,27.77,6.77,36.7,16.31,7.6,8.12,13.59,19.68,19.09,36.96-24.56-1.28-45.95,1.92-63.68,9.56-21.27,9.16-37.31,24.69-47.71,46.18-8.8-.88-17.33-6.27-23.78-15.13h-.01ZM862.47,1499.32c-4.85,22.16-21.14,36.26-49.67,43.04-3.5.83-6.89,1.77-10.17,2.68-12.91,3.58-24.22,6.71-35.97,1.71,7.08-19.66,21.44-32.97,43.77-40.61,1.59-.54,3.16-1.09,4.73-1.64,15.89-5.55,29.77-10.39,47.32-5.18h-.01ZM772.2,1606.09c-5.64-11.12-8.91-24.66-9.59-39.48,19.84,4.57,36.83-.09,54.7-5,2.09-.57,4.2-1.15,6.32-1.72,29.81-7.94,48.73-24.96,57.66-51.94,25.93,17.19,40.52,41.95,42.56,72.17-22.29-4.14-40.97-1.75-60.65.76-2.93.37-5.9.75-8.93,1.12-.41.05-.81.15-1.19.29-22.9,8.78-39.99,25.62-52.12,51.44-12.45-5.24-22.11-14.53-28.77-27.65h.01ZM919.89,1599.02c-1.5,13.48-10.24,22.68-17.66,28.18-20.27,15.01-54.36,20.44-83.04,13.65,8.99-19.53,22.15-32.92,39.2-39.86,16.84-6.85,37.51-7.5,61.5-1.97h0ZM831,1728.23c-15.44-15.58-21.65-40.27-17-68.18,45.83,9.4,86.37-1.12,114.56-29.88.38-.39.7-.84.94-1.34l10.92-22.74c22.84,16.28,39.4,32.94,45.66,56.93-16.06-6.82-29.85-10.69-42.83-12.08-18.09-1.93-35.01.97-51.74,8.87-30.33,14.33-50.19,36.75-60.51,68.41h0ZM1025.52,1809.58c-7.78,23.55-24.68,42.12-47.57,52.28-25.71,11.41-55.88,11.16-82.84-.68-16.25-9.51-29.55-23.68-38.45-40.98-8.25-16.03-12.37-34.14-12.04-52.76,27.66,11.09,53.96,20.89,82.11,12.17,24.25-7.48,54.4-19.63,72.51-47.37.19-.29.35-.6.48-.93l9.97-25.76c13.41,25.01,28.62,65.3,15.82,104.04h.01Z"/>
    <path d="M717.4,1278.47c.21-.43.35-.88.43-1.34,6.76-40.2-12.39-74.04-49.99-88.31-22.77-8.64-48.93-7.07-68.27,4.1-14.02,8.1-23.04,20.63-25.4,35.29-2.96,18.35-4.17,44.4,6.88,64.26,10.88,19.56,31.94,30.42,57.27,30.42,6.29,0,12.84-.67,19.57-2.04,28.36-5.79,48.94-20.45,59.52-42.38h-.01ZM625.7,1301.66c-24.45-5.1-31.51-22.1-33.13-35.46-1.97-16.26,6.11-28.68,25.43-39.08,1.72-.93,2.74-2.77,2.62-4.72s-1.37-3.65-3.2-4.35c-8.04-3.09-14.19-1.75-19.66.94,3.54-7.04,10.59-11.87,21.98-15.39,21.15-6.52,42.19-2.42,59.25,11.55,14.14,11.57,28.41,37.96,18.44,57.4-5.73,11.18-16.59,20.25-30.57,25.55-13.14,4.98-28.14,6.28-41.15,3.56h0Z"/>
    <path d="M846.33,798.28c11.93,6.64,24.62,12.31,38.34,12.31,7.27,0,14.82-1.59,22.71-5.46,15.17-7.44,31.38-26.04,33.39-50.82,2.09-25.85-7.56-45.22-28.7-57.59-2.45-1.43-5.28-3.69-8.27-6.08-7.67-6.12-16.39-13.02-26.42-12.93-17.9.23-34.21,7.62-45.91,20.79-12.73,14.33-18.83,33.98-16.74,53.91,2.24,21.33,11.4,34.62,31.61,45.88h-.01ZM839.86,719.04c4.92-9.22,18.8-22.57,34.28-23.37h.21c4.59,0,19.63,7.06,31.53,19.12,7.45,7.55,16.13,19.54,15.19,33.77-1.85,28.05-18.53,39.6-33.51,41.05-18.78,1.83-39.46-10.86-48.63-24.18-5-7.27-11.54-22.97.94-46.38h-.01Z"/>
    <path d="M505.88,1006.53c-27.14-5.28-43.16,9.04-57.25,24.17-10.64,11.43-19.05,20.45-16.57,40.55,3.81,30.9,24.83,49.45,55.42,49.45,1.83,0,3.69-.07,5.59-.2,17.69-1.25,35.79-11.44,47.23-26.59,10.95-14.49,14.95-32.15,11.27-49.71-3.93-18.78-21.01-32.86-45.69-37.66h0ZM516.32,1089.65c-15.55,13.33-30.14,15.75-45.93,7.63-10.69-5.5-23.04-20.82-17.01-37.66,4.54-12.67,17.61-29.44,30.82-34.45,4.09-1.55,8.24-2.26,12.3-2.26,14.8,0,28.42,9.36,33.87,21.06,4.18,8.98,7.91,26.85-14.04,45.67h-.01Z"/>
    <path d="M699.25,582.55c4.13,1.62,8.06,2.42,11.78,2.42,3.45,0,6.71-.7,9.76-2.09,6.5-2.97,11.71-9.19,14.66-17.52,3.41-9.63,5.93-23.63-11.53-33.99-5.65-3.35-20.4-9.92-35.18,1.43-5.88,4.52-8.51,13.37-7.05,23.69,1.33,9.37,6.72,21.81,17.56,26.05h0ZM699.61,548.47c1.04-1.59,3.34-2.22,5.89-2.22,2.76,0,5.82.74,7.93,1.79,5.03,2.5,5.03,5.79,4.37,8.67-.63,2.76-2.42,6.23-4.98,7.74-1.53.91-3.3,1.05-5.42.45h0c-2.02-.58-5.38-4.4-7.17-9.18-1.34-3.59-1.27-6.27-.63-7.25h0Z"/>
    <path d="M332.07,883.07c-5.45-1.36-10.33-.85-13.75,1.44-1.25.83-2.81,1.66-4.47,2.54-6.14,3.25-16.42,8.69-13.41,20.6,2.71,10.74,12.6,15.5,22.96,15.5,2.62,0,5.28-.31,7.85-.9,5.96-1.37,13.41-5.92,16.62-12.99,2.29-5.06,2.06-10.43-.69-15.54-3.16-5.87-9.88-9.35-15.11-10.66h0Z"/>
    <path d="M517.59,446.07c3.73,2.05,7.77,3.06,11.64,3.06,4.38,0,8.54-1.3,11.74-3.88,3.38-2.72,5.59-7.86,5.65-13.1.05-5.25-2.01-9.9-5.81-13.08h0c-7.75-6.49-23.56-3.78-29.27,2.9-3.81,4.46-3.98,8.86-3.45,11.76,1.07,5.85,5.79,10.31,9.5,12.35h0Z"/>
  </g>
</svg>