<?xml version="1.0" encoding="UTF-8"?>
<svg id="Layer_1" xmlns="http://www.w3.org/2000/svg" xmlns:c2pa="http://c2pa.org/manifest" version="1.1" viewBox="0 0 1920 1920"><metadata><c2pa:manifest>AABN/mp1bWIAAAAeanVtZGMycGEAEQAQgAAAqgA4m3EDYzJwYQAAABZqanVtYgAAAEdqdW1kYzJtYQARABCAAACqADibcQN1cm46YzJwYTo1ZGFlMmE0OS1hYTgxLTQ2MTctYjUyNy02NjhkMDJjMjYwYjQAAAADf2p1bWIAAAApanVtZGMyYXMAEQAQgAAAqgA4m3EDYzJwYS5hc3NlcnRpb25zAAAAALxqdW1iAAAARGp1bWRjYm9yABEAEIAAAKoAOJtxE2MycGEuaW5ncmVkaWVudC52MwAAAAAYYzJzaL6QYSx7bE+7RLvMF41EpesAAABwY2JvcqNscmVsYXRpb25zaGlwaHBhcmVudE9maWRjOmZvcm1hdG1pbWFnZS9zdmcreG1samluc3RhbmNlSUR4LHhtcDppaWQ6ODliZmQ4MDctMWFhNC00MmIyLThhNmEtZmVjMzJiNjI4YWQ1AAABzmp1bWIAAABBanVtZGNib3IAEQAQgAAAqgA4m3ETYzJwYS5hY3Rpb25zLnYyAAAAABhjMnNoHUL06MUdJyaCwTzwk0yS9QAAAYVjYm9yoWdhY3Rpb25zgqJmYWN0aW9ua2MycGEub3BlbmVkanBhcmFtZXRlcnOha2luZ3JlZGllbnRzgaJjdXJseC1zZWxmI2p1bWJmPWMycGEuYXNzZXJ0aW9ucy9jMnBhLmluZ3JlZGllbnQudjNkaGFzaFggVPRzvGHXW7gMM5B1AhVSffaE8uTcpik1WL2Ju285kb6kZmFjdGlvbngdY29tLmFudGhyb3BpYy5jbGF1ZGUucHJvdmlkZWRtc29mdHdhcmVBZ2VudKFkbmFtZWZDbGF1ZGVqcGFyYW1ldGVyc6F4H2NvbS5hbnRocm9waWMub3JpZ2luLWNvbmZpZGVuY2VndW5rbm93bmtkZXNjcmlwdGlvbnhmQ2xhdWRlIHByb3ZpZGVkIHRoaXMgZmlsZSBhdCB0aGUgcmVxdWVzdCBvZiBhIHVzZXIgYW5kIG1heSBoYXZlIGNyZWF0ZWQgb3IgbW9kaWZpZWQgdGhlIGZpbGUgY29udGVudHMuAAAAxGp1bWIAAABAanVtZGNib3IAEQAQgAAAqgA4m3ETYzJwYS5oYXNoLmRhdGEAAAAAGGMyc2jkAgQo12012LbLf4hXh5jIAAAAfGNib3KlamV4Y2x1c2lvbnOBomVzdGFydBjBZmxlbmd0aBkeGGRuYW1lbmp1bWJmIG1hbmlmZXN0Y2FsZ2ZzaGEyNTZkaGFzaFgg8p9bY8j5gbzRE6tTq127YZUT3hogmk4/0h/WfFQH7h1jcGFkSQAAAAAAAAAAAAAAAmRqdW1iAAAAJ2p1bWRjMmNsABEAEIAAAKoAOJtxA2MycGEuY2xhaW0udjIAAAACNWNib3Kmamluc3RhbmNlSUR4LHhtcDppaWQ6MTY5MjNmNDktMTg2Mi00MjJlLWJhZDUtZWNlNWY1MGRjOTI4dGNsYWltX2dlbmVyYXRvcl9pbmZvo2RuYW1lc0FudGhyb3BpYyBDbGF1ZGUuYWlndmVyc2lvbmUxLjAuMHdvcmcuY29udGVudGF1dGguYzJwYV9yc2YwLjkwLjBpc2lnbmF0dXJleE1zZWxmI2p1bWJmPS9jMnBhL3VybjpjMnBhOjVkYWUyYTQ5LWFhODEtNDYxNy1iNTI3LTY2OGQwMmMyNjBiNC9jMnBhLnNpZ25hdHVyZXJjcmVhdGVkX2Fzc2VydGlvbnOComN1cmx4KnNlbGYjanVtYmY9YzJwYS5hc3NlcnRpb25zL2MycGEuYWN0aW9ucy52MmRoYXNoWCAg0OXyjseBJjuCpBPDHviEJ2K9Abhv4Way7crgnPZbtaJjdXJseClzZWxmI2p1bWJmPWMycGEuYXNzZXJ0aW9ucy9jMnBhLmhhc2guZGF0YWRoYXNoWCCqQ2cgBmmr0YACT44fC99IlXnpkaObONZKyImg+xqloHNnYXRoZXJlZF9hc3NlcnRpb25zgaJjdXJseC1zZWxmI2p1bWJmPWMycGEuYXNzZXJ0aW9ucy9jMnBhLmluZ3JlZGllbnQudjNkaGFzaFggVPRzvGHXW7gMM5B1AhVSffaE8uTcpik1WL2Ju285kb5jYWxnZnNoYTI1NgAAEDhqdW1iAAAAKGp1bWRjMmNzABEAEIAAAKoAOJtxA2MycGEuc2lnbmF0dXJlAAAAEAhjYm9y0oRZAhKiASYYIVkCCjCCAgYwggGNoAMCAQICFEDloAruwjnQvriD+gZCBT1nVRMAMAoGCCqGSM49BAMDMEkxFzAVBgNVBAoTDkFudGhyb3BpYywgUEJDMS4wLAYDVQQDEyVBbnRocm9waWMgQ29udGVudCBDcmVkZW50aWFscyBSb290IENBMB4XDTI2MDgwNzE4NDM1NloXDTI4MDgwNjE5NDM1NlowRDEXMBUGA1UEChMOQW50aHJvcGljLCBQQkMxKTAnBgNVBAMTIEFudGhyb3BpYyBDbGF1ZGUgQ29udGVudCBTaWduaW5nMFkwEwYHKoZIzj0CAQYIKoZIzj0DAQcDQgAEmHoKa8tQGAUU1TS9QqU5W0Tp2N3XsvlK7BfQt6YWKwEzd2R3/dzKPEUDdCjlLjp9fT+KFjRVnuZ9v0oXvTe3k6NYMFYwDgYDVR0PAQH/BAQDAgeAMBUGA1UdJQQOMAwGCisGAQQBg+heAgEwDAYDVR0TAQH/BAIwADAfBgNVHSMEGDAWgBTOUeIEgU5kWyP448TPmj6cwddcwjAKBggqhkjOPQQDAwNnADBkAjAxcx0UngF60stVjs5G4T2eiptsBk5mf9oCtfJPAUBl8qs/PEXa8+gk1/X5QJ2DVcYCMHBfXN31YapiSqYvlIWrDVDJKOvXMl+kkz37Wt0PBI8sw486Mq6JeOhT+lRR4b1HCaFjcGFkWQ2eAAAAAAAAAAAAAAAAAAAAAAAAAAAAAAAAAAAAAAAAAAAAAAAAAAAAAAAAAAAAAAAAAAAAAAAAAAAAAAAAAAAAAAAAAAAAAAAAAAAAAAAAAAAAAAAAAAAAAAAAAAAAAAAAAAAAAAAAAAAAAAAAAAAAAAAAAAAAAAAAAAAAAAAAAAAAAAAAAAAAAAAAAAAAAAAAAAAAAAAAAAAAAAAAAAAAAAAAAAAAAAAAAAAAAAAAAAAAAAAAAAAAAAAAAAAAAAAAAAAAAAAAAAAAAAAAAAAAAAAAAAAAAAAAAAAAAAAAAAAAAAAAAAAAAAAAAAAAAAAAAAAAAAAAAAAAAAAAAAAAAAAAAAAAAAAAAAAAAAAAAAAAAAAAAAAAAAAAAAAAAAAAAAAAAAAAAAAAAAAAAAAAAAAAAAAAAAAAAAAAAAAAAAAAAAAAAAAAAAAAAAAAAAAAAAAAAAAAAAAAAAAAAAAAAAAAAAAAAAAAAAAAAAAAAAAAAAAAAAAAAAAAAAAAAAAAAAAAAAAAAAAAAAAAAAAAAAAAAAAAAAAAAAAAAAAAAAAAAAAAAAAAAAAAAAAAAAAAAAAAAAAAAAAAAAAAAAAAAAAAAAAAAAAAAAAAAAAAAAAAAAAAAAAAAAAAAAAAAAAAAAAAAAAAAAAAAAAAAAAAAAAAAAAAAAAAAAAAAAAAAAAAAAAAAAAAAAAAAAAAAAAAAAAAAAAAAAAAAAAAAAAAAAAAAAAAAAAAAAAAAAAAAAAAAAAAAAAAAAAAAAAAAAAAAAAAAAAAAAAAAAAAAAAAAAAAAAAAAAAAAAAAAAAAAAAAAAAAAAAAAAAAAAAAAAAAAAAAAAAAAAAAAAAAAAAAAAAAAAAAAAAAAAAAAAAAAAAAAAAAAAAAAAAAAAAAAAAAAAAAAAAAAAAAAAAAAAAAAAAAAAAAAAAAAAAAAAAAAAAAAAAAAAAAAAAAAAAAAAAAAAAAAAAAAAAAAAAAAAAAAAAAAAAAAAAAAAAAAAAAAAAAAAAAAAAAAAAAAAAAAAAAAAAAAAAAAAAAAAAAAAAAAAAAAAAAAAAAAAAAAAAAAAAAAAAAAAAAAAAAAAAAAAAAAAAAAAAAAAAAAAAAAAAAAAAAAAAAAAAAAAAAAAAAAAAAAAAAAAAAAAAAAAAAAAAAAAAAAAAAAAAAAAAAAAAAAAAAAAAAAAAAAAAAAAAAAAAAAAAAAAAAAAAAAAAAAAAAAAAAAAAAAAAAAAAAAAAAAAAAAAAAAAAAAAAAAAAAAAAAAAAAAAAAAAAAAAAAAAAAAAAAAAAAAAAAAAAAAAAAAAAAAAAAAAAAAAAAAAAAAAAAAAAAAAAAAAAAAAAAAAAAAAAAAAAAAAAAAAAAAAAAAAAAAAAAAAAAAAAAAAAAAAAAAAAAAAAAAAAAAAAAAAAAAAAAAAAAAAAAAAAAAAAAAAAAAAAAAAAAAAAAAAAAAAAAAAAAAAAAAAAAAAAAAAAAAAAAAAAAAAAAAAAAAAAAAAAAAAAAAAAAAAAAAAAAAAAAAAAAAAAAAAAAAAAAAAAAAAAAAAAAAAAAAAAAAAAAAAAAAAAAAAAAAAAAAAAAAAAAAAAAAAAAAAAAAAAAAAAAAAAAAAAAAAAAAAAAAAAAAAAAAAAAAAAAAAAAAAAAAAAAAAAAAAAAAAAAAAAAAAAAAAAAAAAAAAAAAAAAAAAAAAAAAAAAAAAAAAAAAAAAAAAAAAAAAAAAAAAAAAAAAAAAAAAAAAAAAAAAAAAAAAAAAAAAAAAAAAAAAAAAAAAAAAAAAAAAAAAAAAAAAAAAAAAAAAAAAAAAAAAAAAAAAAAAAAAAAAAAAAAAAAAAAAAAAAAAAAAAAAAAAAAAAAAAAAAAAAAAAAAAAAAAAAAAAAAAAAAAAAAAAAAAAAAAAAAAAAAAAAAAAAAAAAAAAAAAAAAAAAAAAAAAAAAAAAAAAAAAAAAAAAAAAAAAAAAAAAAAAAAAAAAAAAAAAAAAAAAAAAAAAAAAAAAAAAAAAAAAAAAAAAAAAAAAAAAAAAAAAAAAAAAAAAAAAAAAAAAAAAAAAAAAAAAAAAAAAAAAAAAAAAAAAAAAAAAAAAAAAAAAAAAAAAAAAAAAAAAAAAAAAAAAAAAAAAAAAAAAAAAAAAAAAAAAAAAAAAAAAAAAAAAAAAAAAAAAAAAAAAAAAAAAAAAAAAAAAAAAAAAAAAAAAAAAAAAAAAAAAAAAAAAAAAAAAAAAAAAAAAAAAAAAAAAAAAAAAAAAAAAAAAAAAAAAAAAAAAAAAAAAAAAAAAAAAAAAAAAAAAAAAAAAAAAAAAAAAAAAAAAAAAAAAAAAAAAAAAAAAAAAAAAAAAAAAAAAAAAAAAAAAAAAAAAAAAAAAAAAAAAAAAAAAAAAAAAAAAAAAAAAAAAAAAAAAAAAAAAAAAAAAAAAAAAAAAAAAAAAAAAAAAAAAAAAAAAAAAAAAAAAAAAAAAAAAAAAAAAAAAAAAAAAAAAAAAAAAAAAAAAAAAAAAAAAAAAAAAAAAAAAAAAAAAAAAAAAAAAAAAAAAAAAAAAAAAAAAAAAAAAAAAAAAAAAAAAAAAAAAAAAAAAAAAAAAAAAAAAAAAAAAAAAAAAAAAAAAAAAAAAAAAAAAAAAAAAAAAAAAAAAAAAAAAAAAAAAAAAAAAAAAAAAAAAAAAAAAAAAAAAAAAAAAAAAAAAAAAAAAAAAAAAAAAAAAAAAAAAAAAAAAAAAAAAAAAAAAAAAAAAAAAAAAAAAAAAAAAAAAAAAAAAAAAAAAAAAAAAAAAAAAAAAAAAAAAAAAAAAAAAAAAAAAAAAAAAAAAAAAAAAAAAAAAAAAAAAAAAAAAAAAAAAAAAAAAAAAAAAAAAAAAAAAAAAAAAAAAAAAAAAAAAAAAAAAAAAAAAAAAAAAAAAAAAAAAAAAAAAAAAAAAAAAAAAAAAAAAAAAAAAAAAAAAAAAAAAAAAAAAAAAAAAAAAAAAAAAAAAAAAAAAAAAAAAAAAAAAAAAAAAAAAAAAAAAAAAAAAAAAAAAAAAAAAAAAAAAAAAAAAAAAAAAAAAAAAAAAAAAAAAAAAAAAAAAAAAAAAAAAAAAAAAAAAAAAAAAAAAAAAAAAAAAAAAAAAAAAAAAAAAAAAAAAAAAAAAAAAAAAAAAAAAAAAAAAAAAAAAAAAAAAAAAAAAAAAAAAAAAAAAAAAAAAAAAAAAAAAAAAAAAAAAAAAAAAAAAAAAAAAAAAAAAAAAAAAAAAAAAAAAAAAAAAAAAAAAAAAAAAAAAAAAAAAAAAAAAAAAAAAAAAAAAAAAAAAAAAAAAAAAAAAAAAAAAAAAAAAAAAAAAAAAAAAAAAAAAAAAAAAAAAAAAAAAAAAAAAAAAAAAAAAAAAAAAAAAAAAAAAAAAAAAAAAAAAAAAAAAAAAAAAAAAAAAAAAAAAAAAAAAAAAAAAAAAAAAAAAAAAAAAAAAAAAAAAAAAAAAAAAAAAAAAAAAAAAAAAAAAAAAAAAAAAAAAAAAAAAAAAAAAAAAAAAAAAAAAAAAAAAAAAAAAAAAAAAAAAAAAAAAAAAAAAAAAAAAAAAAAAAAAAAAAAAAAAAAAAAAAAAAAAAAAAAAAAAAAAAAAAAAAAAAAAAAAAAAAAAAAAAAAAAAAAAAAAAAAAAAAAAAAAAAAAAAAAAAAAAAAAAAAAAAAAAAAAAAAAAAAAAAAAAAAAAAAAAAAAAAAAAAAAAAAAAAAAAAAAAAAAAAAAAAAAAAAAAAAAAAAAAAAAAAAAAAAAAAAAAAAAAAAAAAAAAAAAAAAAAAAAAAAAAAAAAAAAAAAAAAAAAAAAAAAAAAAAAAAAAAAAAAAAAAAAAAAAAAAAAAAAAAAAAAAAAAAAAAAAAAAAAAAAAAAAAAAAAAAAAAAAAAAAAAAAAAAAAAAAAAAAAAAAAAAAAAAAAAAAAAAAAAAAAAAAAAAAAAAAAAAAAAAAAAAAAAAAAAAAAAAAAAAAAAAAAAAAAAAAAAAAAAAAAAAAAAAAAAAAAAAAAAAAAAAAAAAAAAAAAAAAAAAAAAAAAAAAAAAAAAAAAAAAAAAAAAAAAAAAAAAAAAAAAAAAAAAAAAAAAAAAAAAAAAAAAAAAAAAAAAAAAAAAAAAAAAAAAAAAAAAAAAAAAAAAAAAAAAAAAAAAAAAAAAAAAAAAAAAAAAAAAAAAAAAAAAAAAAAAAAAAAAAAAAAAAAAAAAAAAAAAAAAAAAAAAAAAAAAAAAAAAAAAAAAAAAAAAAAAAAAAAAAAAAAAAAAAAAAAAAAAAAAAAAAAAAAAAAAAAAAAAAAAAAAAAAAAAAAAAAAAAAAAAAAAAAAAAAAAAAAAAAAAAAAAAAAAAAAAAAAAAAAAAAAAAAAAAAAAAAAAAAAAAAAAAAAAAAAAAAAAAAAAAAAAAAAAAAAAAAAAAAAAAAAAAAAAAAAAAAAAAAAAAAAAAAAAAAAAAAAAAAAAAAAAAAAAAAAAAAAAAAAAAAAAAAAAAAAAAAAAAAAAAAAAAAAAAAAAAAAAAAAAAAAAAAAAAAAAAAAAAAAAAAAAAAAAAAAAAAAAAAAAAAAAAAAAAAAAAAAAAAAAAAAAAAAAAAAAAAAAAAAAAAAAAAAAAAAAAAAAAAAAAAAAAAAAAAAAAAAAAAAAAAAAAAAAAAAAAAAAAAAAAAAAAAAAAAAAAAAAAAAAAA9lhA5KD+OG3Emv00e3Al/v81ILm4vB6vlC+xK+ytD329MhalTvNexYDIbwGe9KNRpM2i+UFk7glS/yMAf6S5cJur2wAAN25qdW1iAAAAR2p1bWRjMm1hABEAEIAAAKoAOJtxA3VybjpjMnBhOmRmYTU4NTBkLWZlN2YtNGY4YS05ZDNlLWMyOWE3OWU2Njg4YwAAAAWBanVtYgAAAClqdW1kYzJhcwARABCAAACqADibcQNjMnBhLmFzc2VydGlvbnMAAAACPWp1bWIAAABEanVtZGNib3IAEQAQgAAAqgA4m3ETYzJwYS5pbmdyZWRpZW50LnYzAAAAABhjMnNoeC2kNnOYhpgqLlnKklCYvQAAAfFjYm9yp2xyZWxhdGlvbnNoaXBocGFyZW50T2ZoZGM6dGl0bGV3QUkgR2VuZXJhdGVkIEluZ3JlZGllbnRpZGM6Zm9ybWF0bWltYWdlL3N2Zyt4bWxxdmFsaWRhdGlvblJlc3VsdHOhbmFjdGl2ZU1hbmlmZXN0o2dzdWNjZXNzgG1pbmZvcm1hdGlvbmFsgGdmYWlsdXJlgGppbnN0YW5jZUlEeC11cm46dXVpZDpmOWZkNmUwMi1iYzZhLTQxMGMtODc0Yy1mMjM1YmUzMmM3YWVuYWN0aXZlTWFuaWZlc3SjY3VybHg+c2VsZiNqdW1iZj0vYzJwYS91cm46YzJwYTo1ZGFlMmE0OS1hYTgxLTQ2MTctYjUyNy02NjhkMDJjMjYwYjRjYWxnZnNoYTI1NmRoYXNoWCBv2GKScwT6iaoC6YxoZx3Wo/wmgyV6pP3JtPLe88zyl25jbGFpbVNpZ25hdHVyZaNjdXJseE1zZWxmI2p1bWJmPS9jMnBhL3VybjpjMnBhOjVkYWUyYTQ5LWFhODEtNDYxNy1iNTI3LTY2OGQwMmMyNjBiNC9jMnBhLnNpZ25hdHVyZWNhbGdmc2hhMjU2ZGhhc2hYIBZIQPOHChszOMSe4TebUpsxYPF7gnQ2L/p+sey5dIUiAAACT2p1bWIAAABBanVtZGNib3IAEQAQgAAAqgA4m3ETYzJwYS5hY3Rpb25zLnYyAAAAABhjMnNo7xbXC4Ook4LnhS1gkwyJWgAAAgZjYm9yomdhY3Rpb25zgaRmYWN0aW9ua2MycGEub3BlbmVkZHdoZW7AdDIwMjYtMDktMTRUMjI6MTg6MjlaanBhcmFtZXRlcnOja2luZ3JlZGllbnRzgaJjdXJseC1zZWxmI2p1bWJmPWMycGEuYXNzZXJ0aW9ucy9jMnBhLmluZ3JlZGllbnQudjNkaGFzaFggHNsIA3z7maxmAYtAQWNSkdsga2Z+R22YFY20adIp+dJ4G2NvbS5hZG9iZS5kaWdpdGFsU291cmNlVHlwZXhTaHR0cDovL2N2LmlwdGMub3JnL25ld3Njb2Rlcy9kaWdpdGFsc291cmNldHlwZS9jb21wb3NpdGVXaXRoVHJhaW5lZEFsZ29yaXRobWljTWVkaWFxY29tLmFkb2JlLmdlbkFpSWR4JDdjOWFlOWNiLTMxMTktNDkyZC1iOTcxLWZjYTBiN2Y5MDQ5OXFkaWdpdGFsU291cmNlVHlwZXhTaHR0cDovL2N2LmlwdGMub3JnL25ld3Njb2Rlcy9kaWdpdGFsc291cmNldHlwZS9jb21wb3NpdGVXaXRoVHJhaW5lZEFsZ29yaXRobWljTWVkaWFpdGVtcGxhdGVzgaJmYWN0aW9uYSpydGVtcGxhdGVQYXJhbWV0ZXJzoXVjb20uYWRvYmUuYXBwRW5mb3JjZWT1AAAAxGp1bWIAAABAanVtZGNib3IAEQAQgAAAqgA4m3ETYzJwYS5oYXNoLmRhdGEAAAAAGGMyc2ialXFWG8sf/+ufEjbMOGXMAAAAfGNib3KlamV4Y2x1c2lvbnOBomVzdGFydBjBZmxlbmd0aBloAGRuYW1lbmp1bWJmIG1hbmlmZXN0Y2FsZ2ZzaGEyNTZkaGFzaFgg/pSknzQrq6dJuB2j7tqtigrHeN8BjXS8POkKrPzcYqtjcGFkSQAAAAAAAAAAAAAAAmFqdW1iAAAAJ2p1bWRjMmNsABEAEIAAAKoAOJtxA2MycGEuY2xhaW0udjIAAAACMmNib3Kmamluc3RhbmNlSUR4LHhtcDppaWQ6YWI2ZjA3OTYtZWRhOC00MjJjLWI3NzAtYzY0MTkzM2Q3OGY0dGNsYWltX2dlbmVyYXRvcl9pbmZvo2RuYW1lcUFkb2JlIElsbHVzdHJhdG9yZ3ZlcnNpb25kMzAuOHdvcmcuY29udGVudGF1dGguYzJwYV9yc2YwLjg2LjFpc2lnbmF0dXJleE1zZWxmI2p1bWJmPS9jMnBhL3VybjpjMnBhOmRmYTU4NTBkLWZlN2YtNGY4YS05ZDNlLWMyOWE3OWU2Njg4Yy9jMnBhLnNpZ25hdHVyZXJjcmVhdGVkX2Fzc2VydGlvbnOBomN1cmx4KXNlbGYjanVtYmY9YzJwYS5hc3NlcnRpb25zL2MycGEuaGFzaC5kYXRhZGhhc2hYIP8QrXM1Rg9cuqETui90AKYilzAB6Q4aIS0VNGqdsuXpc2dhdGhlcmVkX2Fzc2VydGlvbnOComN1cmx4LXNlbGYjanVtYmY9YzJwYS5hc3NlcnRpb25zL2MycGEuaW5ncmVkaWVudC52M2RoYXNoWCA4/KNDV/4/zcWBpRuhS5JLlA0vpdEO6gMFesHt+2VTV6JjdXJseCpzZWxmI2p1bWJmPWMycGEuYXNzZXJ0aW9ucy9jMnBhLmFjdGlvbnMudjJkaGFzaFggyOvzYewBqZJF8BlDhIcJFaJdbNJaFG+b5Ssmc6Xf+JpjYWxnZnNoYTI1NgAALz1qdW1iAAAAKGp1bWRjMmNzABEAEIAAAKoAOJtxA2MycGEuc2lnbmF0dXJlAAAALw1jYm9y0oRZBAGiAScYIYJZAjswggI3MIIB6aADAgECAggAiPxGVPSItDAFBgMrZXAwYDEgMB4GA1UEAxMXYzJwYS1lcGhlbWVyYWwtY2EubG9jYWwxPDA6BgNVBAoTM1NlbGYtc2lnbmVkIGVwaGVtZXJhbCBDQSAoQ29udGVudCBBdXRoZW50aWNpdHkgU0RLKTAeFw0yNjA5MTMyMjE4NDVaFw0yNzA5MTQyMjE4NDVaMHsxIDAeBgNVBAMTF0Fkb2JlIENvbXBsaWFuY2UgU2lnbmVyMVcwVQYDVQQKE05TZWxmLXNpZ25lZCBlcGhlbWVyYWwgY2VydGlmaWNhdGUgKENvbnRlbnQgQXV0aGVudGljaXR5IFNESykgLS0gTE9DQUwgVVNFIE9OTFkwKjAFBgMrZXADIQAVurWd68Z7GA2WolK4p9mBtltBfpd4ItYqj4H5FZzZtKOBpTCBojAPBgNVHRMBAf8EBTADAQEAMA4GA1UdDwEB/wQEAwIAgDAdBgNVHSUEFjAUBggrBgEFBQcDBAYIKwYBBQUHAwAwGwYDVR0OBBSNaZcOaTykxOlMgSq3mjwUvUwobjAfBgNVHSMEGDAWgBSfo4KJvMWa/lSqg82riwWOGtzcbDAiBgNVHREEGzAZghdBZG9iZSBDb21wbGlhbmNlIFNpZ25lcjAFBgMrZXADQQA1wBW6BBu3oPdN68hoN4JVOrFuFNyzuVJ+NeMVl8I7PjpMtxACI3e/FMcgFcBZg2e4XRL2YijTT8Q1kJxoM4cMWQG6MIIBtjCCAWigAwIBAgIIAOt9T4MpbLcwBQYDK2VwMGAxIDAeBgNVBAMTF2MycGEtZXBoZW1lcmFsLWNhLmxvY2FsMTwwOgYDVQQKEzNTZWxmLXNpZ25lZCBlcGhlbWVyYWwgQ0EgKENvbnRlbnQgQXV0aGVudGljaXR5IFNESykwHhcNMjYwOTEzMjIxODQ1WhcNMjcwOTE0MjIxODQ1WjBgMSAwHgYDVQQDExdjMnBhLWVwaGVtZXJhbC1jYS5sb2NhbDE8MDoGA1UEChMzU2VsZi1zaWduZWQgZXBoZW1lcmFsIENBIChDb250ZW50IEF1dGhlbnRpY2l0eSBTREspMCowBQYDK2VwAyEAT02qZhQmYU/VGoAhCp7ZA75omNq1QSd+CQFnwTN3ieGjQDA+MA8GA1UdEwEB/wQFMAMBAf8wDgYDVR0PAQH/BAQDAgCGMBsGA1UdDgQUn6OCibzFmv5UqoPNq4sFjhrc3GwwBQYDK2VwA0EAkPWCySxLgMa3UeWElfN8gavxa0nscFeEWu4zkz3AnUA06VU2jRvURbGiTMZ4awOAaR3MA3dO5z81QkN2CUyWDaFjcGFkWSq0AAAAAAAAAAAAAAAAAAAAAAAAAAAAAAAAAAAAAAAAAAAAAAAAAAAAAAAAAAAAAAAAAAAAAAAAAAAAAAAAAAAAAAAAAAAAAAAAAAAAAAAAAAAAAAAAAAAAAAAAAAAAAAAAAAAAAAAAAAAAAAAAAAAAAAAAAAAAAAAAAAAAAAAAAAAAAAAAAAAAAAAAAAAAAAAAAAAAAAAAAAAAAAAAAAAAAAAAAAAAAAAAAAAAAAAAAAAAAAAAAAAAAAAAAAAAAAAAAAAAAAAAAAAAAAAAAAAAAAAAAAAAAAAAAAAAAAAAAAAAAAAAAAAAAAAAAAAAAAAAAAAAAAAAAAAAAAAAAAAAAAAAAAAAAAAAAAAAAAAAAAAAAAAAAAAAAAAAAAAAAAAAAAAAAAAAAAAAAAAAAAAAAAAAAAAAAAAAAAAAAAAAAAAAAAAAAAAAAAAAAAAAAAAAAAAAAAAAAAAAAAAAAAAAAAAAAAAAAAAAAAAAAAAAAAAAAAAAAAAAAAAAAAAAAAAAAAAAAAAAAAAAAAAAAAAAAAAAAAAAAAAAAAAAAAAAAAAAAAAAAAAAAAAAAAAAAAAAAAAAAAAAAAAAAAAAAAAAAAAAAAAAAAAAAAAAAAAAAAAAAAAAAAAAAAAAAAAAAAAAAAAAAAAAAAAAAAAAAAAAAAAAAAAAAAAAAAAAAAAAAAAAAAAAAAAAAAAAAAAAAAAAAAAAAAAAAAAAAAAAAAAAAAAAAAAAAAAAAAAAAAAAAAAAAAAAAAAAAAAAAAAAAAAAAAAAAAAAAAAAAAAAAAAAAAAAAAAAAAAAAAAAAAAAAAAAAAAAAAAAAAAAAAAAAAAAAAAAAAAAAAAAAAAAAAAAAAAAAAAAAAAAAAAAAAAAAAAAAAAAAAAAAAAAAAAAAAAAAAAAAAAAAAAAAAAAAAAAAAAAAAAAAAAAAAAAAAAAAAAAAAAAAAAAAAAAAAAAAAAAAAAAAAAAAAAAAAAAAAAAAAAAAAAAAAAAAAAAAAAAAAAAAAAAAAAAAAAAAAAAAAAAAAAAAAAAAAAAAAAAAAAAAAAAAAAAAAAAAAAAAAAAAAAAAAAAAAAAAAAAAAAAAAAAAAAAAAAAAAAAAAAAAAAAAAAAAAAAAAAAAAAAAAAAAAAAAAAAAAAAAAAAAAAAAAAAAAAAAAAAAAAAAAAAAAAAAAAAAAAAAAAAAAAAAAAAAAAAAAAAAAAAAAAAAAAAAAAAAAAAAAAAAAAAAAAAAAAAAAAAAAAAAAAAAAAAAAAAAAAAAAAAAAAAAAAAAAAAAAAAAAAAAAAAAAAAAAAAAAAAAAAAAAAAAAAAAAAAAAAAAAAAAAAAAAAAAAAAAAAAAAAAAAAAAAAAAAAAAAAAAAAAAAAAAAAAAAAAAAAAAAAAAAAAAAAAAAAAAAAAAAAAAAAAAAAAAAAAAAAAAAAAAAAAAAAAAAAAAAAAAAAAAAAAAAAAAAAAAAAAAAAAAAAAAAAAAAAAAAAAAAAAAAAAAAAAAAAAAAAAAAAAAAAAAAAAAAAAAAAAAAAAAAAAAAAAAAAAAAAAAAAAAAAAAAAAAAAAAAAAAAAAAAAAAAAAAAAAAAAAAAAAAAAAAAAAAAAAAAAAAAAAAAAAAAAAAAAAAAAAAAAAAAAAAAAAAAAAAAAAAAAAAAAAAAAAAAAAAAAAAAAAAAAAAAAAAAAAAAAAAAAAAAAAAAAAAAAAAAAAAAAAAAAAAAAAAAAAAAAAAAAAAAAAAAAAAAAAAAAAAAAAAAAAAAAAAAAAAAAAAAAAAAAAAAAAAAAAAAAAAAAAAAAAAAAAAAAAAAAAAAAAAAAAAAAAAAAAAAAAAAAAAAAAAAAAAAAAAAAAAAAAAAAAAAAAAAAAAAAAAAAAAAAAAAAAAAAAAAAAAAAAAAAAAAAAAAAAAAAAAAAAAAAAAAAAAAAAAAAAAAAAAAAAAAAAAAAAAAAAAAAAAAAAAAAAAAAAAAAAAAAAAAAAAAAAAAAAAAAAAAAAAAAAAAAAAAAAAAAAAAAAAAAAAAAAAAAAAAAAAAAAAAAAAAAAAAAAAAAAAAAAAAAAAAAAAAAAAAAAAAAAAAAAAAAAAAAAAAAAAAAAAAAAAAAAAAAAAAAAAAAAAAAAAAAAAAAAAAAAAAAAAAAAAAAAAAAAAAAAAAAAAAAAAAAAAAAAAAAAAAAAAAAAAAAAAAAAAAAAAAAAAAAAAAAAAAAAAAAAAAAAAAAAAAAAAAAAAAAAAAAAAAAAAAAAAAAAAAAAAAAAAAAAAAAAAAAAAAAAAAAAAAAAAAAAAAAAAAAAAAAAAAAAAAAAAAAAAAAAAAAAAAAAAAAAAAAAAAAAAAAAAAAAAAAAAAAAAAAAAAAAAAAAAAAAAAAAAAAAAAAAAAAAAAAAAAAAAAAAAAAAAAAAAAAAAAAAAAAAAAAAAAAAAAAAAAAAAAAAAAAAAAAAAAAAAAAAAAAAAAAAAAAAAAAAAAAAAAAAAAAAAAAAAAAAAAAAAAAAAAAAAAAAAAAAAAAAAAAAAAAAAAAAAAAAAAAAAAAAAAAAAAAAAAAAAAAAAAAAAAAAAAAAAAAAAAAAAAAAAAAAAAAAAAAAAAAAAAAAAAAAAAAAAAAAAAAAAAAAAAAAAAAAAAAAAAAAAAAAAAAAAAAAAAAAAAAAAAAAAAAAAAAAAAAAAAAAAAAAAAAAAAAAAAAAAAAAAAAAAAAAAAAAAAAAAAAAAAAAAAAAAAAAAAAAAAAAAAAAAAAAAAAAAAAAAAAAAAAAAAAAAAAAAAAAAAAAAAAAAAAAAAAAAAAAAAAAAAAAAAAAAAAAAAAAAAAAAAAAAAAAAAAAAAAAAAAAAAAAAAAAAAAAAAAAAAAAAAAAAAAAAAAAAAAAAAAAAAAAAAAAAAAAAAAAAAAAAAAAAAAAAAAAAAAAAAAAAAAAAAAAAAAAAAAAAAAAAAAAAAAAAAAAAAAAAAAAAAAAAAAAAAAAAAAAAAAAAAAAAAAAAAAAAAAAAAAAAAAAAAAAAAAAAAAAAAAAAAAAAAAAAAAAAAAAAAAAAAAAAAAAAAAAAAAAAAAAAAAAAAAAAAAAAAAAAAAAAAAAAAAAAAAAAAAAAAAAAAAAAAAAAAAAAAAAAAAAAAAAAAAAAAAAAAAAAAAAAAAAAAAAAAAAAAAAAAAAAAAAAAAAAAAAAAAAAAAAAAAAAAAAAAAAAAAAAAAAAAAAAAAAAAAAAAAAAAAAAAAAAAAAAAAAAAAAAAAAAAAAAAAAAAAAAAAAAAAAAAAAAAAAAAAAAAAAAAAAAAAAAAAAAAAAAAAAAAAAAAAAAAAAAAAAAAAAAAAAAAAAAAAAAAAAAAAAAAAAAAAAAAAAAAAAAAAAAAAAAAAAAAAAAAAAAAAAAAAAAAAAAAAAAAAAAAAAAAAAAAAAAAAAAAAAAAAAAAAAAAAAAAAAAAAAAAAAAAAAAAAAAAAAAAAAAAAAAAAAAAAAAAAAAAAAAAAAAAAAAAAAAAAAAAAAAAAAAAAAAAAAAAAAAAAAAAAAAAAAAAAAAAAAAAAAAAAAAAAAAAAAAAAAAAAAAAAAAAAAAAAAAAAAAAAAAAAAAAAAAAAAAAAAAAAAAAAAAAAAAAAAAAAAAAAAAAAAAAAAAAAAAAAAAAAAAAAAAAAAAAAAAAAAAAAAAAAAAAAAAAAAAAAAAAAAAAAAAAAAAAAAAAAAAAAAAAAAAAAAAAAAAAAAAAAAAAAAAAAAAAAAAAAAAAAAAAAAAAAAAAAAAAAAAAAAAAAAAAAAAAAAAAAAAAAAAAAAAAAAAAAAAAAAAAAAAAAAAAAAAAAAAAAAAAAAAAAAAAAAAAAAAAAAAAAAAAAAAAAAAAAAAAAAAAAAAAAAAAAAAAAAAAAAAAAAAAAAAAAAAAAAAAAAAAAAAAAAAAAAAAAAAAAAAAAAAAAAAAAAAAAAAAAAAAAAAAAAAAAAAAAAAAAAAAAAAAAAAAAAAAAAAAAAAAAAAAAAAAAAAAAAAAAAAAAAAAAAAAAAAAAAAAAAAAAAAAAAAAAAAAAAAAAAAAAAAAAAAAAAAAAAAAAAAAAAAAAAAAAAAAAAAAAAAAAAAAAAAAAAAAAAAAAAAAAAAAAAAAAAAAAAAAAAAAAAAAAAAAAAAAAAAAAAAAAAAAAAAAAAAAAAAAAAAAAAAAAAAAAAAAAAAAAAAAAAAAAAAAAAAAAAAAAAAAAAAAAAAAAAAAAAAAAAAAAAAAAAAAAAAAAAAAAAAAAAAAAAAAAAAAAAAAAAAAAAAAAAAAAAAAAAAAAAAAAAAAAAAAAAAAAAAAAAAAAAAAAAAAAAAAAAAAAAAAAAAAAAAAAAAAAAAAAAAAAAAAAAAAAAAAAAAAAAAAAAAAAAAAAAAAAAAAAAAAAAAAAAAAAAAAAAAAAAAAAAAAAAAAAAAAAAAAAAAAAAAAAAAAAAAAAAAAAAAAAAAAAAAAAAAAAAAAAAAAAAAAAAAAAAAAAAAAAAAAAAAAAAAAAAAAAAAAAAAAAAAAAAAAAAAAAAAAAAAAAAAAAAAAAAAAAAAAAAAAAAAAAAAAAAAAAAAAAAAAAAAAAAAAAAAAAAAAAAAAAAAAAAAAAAAAAAAAAAAAAAAAAAAAAAAAAAAAAAAAAAAAAAAAAAAAAAAAAAAAAAAAAAAAAAAAAAAAAAAAAAAAAAAAAAAAAAAAAAAAAAAAAAAAAAAAAAAAAAAAAAAAAAAAAAAAAAAAAAAAAAAAAAAAAAAAAAAAAAAAAAAAAAAAAAAAAAAAAAAAAAAAAAAAAAAAAAAAAAAAAAAAAAAAAAAAAAAAAAAAAAAAAAAAAAAAAAAAAAAAAAAAAAAAAAAAAAAAAAAAAAAAAAAAAAAAAAAAAAAAAAAAAAAAAAAAAAAAAAAAAAAAAAAAAAAAAAAAAAAAAAAAAAAAAAAAAAAAAAAAAAAAAAAAAAAAAAAAAAAAAAAAAAAAAAAAAAAAAAAAAAAAAAAAAAAAAAAAAAAAAAAAAAAAAAAAAAAAAAAAAAAAAAAAAAAAAAAAAAAAAAAAAAAAAAAAAAAAAAAAAAAAAAAAAAAAAAAAAAAAAAAAAAAAAAAAAAAAAAAAAAAAAAAAAAAAAAAAAAAAAAAAAAAAAAAAAAAAAAAAAAAAAAAAAAAAAAAAAAAAAAAAAAAAAAAAAAAAAAAAAAAAAAAAAAAAAAAAAAAAAAAAAAAAAAAAAAAAAAAAAAAAAAAAAAAAAAAAAAAAAAAAAAAAAAAAAAAAAAAAAAAAAAAAAAAAAAAAAAAAAAAAAAAAAAAAAAAAAAAAAAAAAAAAAAAAAAAAAAAAAAAAAAAAAAAAAAAAAAAAAAAAAAAAAAAAAAAAAAAAAAAAAAAAAAAAAAAAAAAAAAAAAAAAAAAAAAAAAAAAAAAAAAAAAAAAAAAAAAAAAAAAAAAAAAAAAAAAAAAAAAAAAAAAAAAAAAAAAAAAAAAAAAAAAAAAAAAAAAAAAAAAAAAAAAAAAAAAAAAAAAAAAAAAAAAAAAAAAAAAAAAAAAAAAAAAAAAAAAAAAAAAAAAAAAAAAAAAAAAAAAAAAAAAAAAAAAAAAAAAAAAAAAAAAAAAAAAAAAAAAAAAAAAAAAAAAAAAAAAAAAAAAAAAAAAAAAAAAAAAAAAAAAAAAAAAAAAAAAAAAAAAAAAAAAAAAAAAAAAAAAAAAAAAAAAAAAAAAAAAAAAAAAAAAAAAAAAAAAAAAAAAAAAAAAAAAAAAAAAAAAAAAAAAAAAAAAAAAAAAAAAAAAAAAAAAAAAAAAAAAAAAAAAAAAAAAAAAAAAAAAAAAAAAAAAAAAAAAAAAAAAAAAAAAAAAAAAAAAAAAAAAAAAAAAAAAAAAAAAAAAAAAAAAAAAAAAAAAAAAAAAAAAAAAAAAAAAAAAAAAAAAAAAAAAAAAAAAAAAAAAAAAAAAAAAAAAAAAAAAAAAAAAAAAAAAAAAAAAAAAAAAAAAAAAAAAAAAAAAAAAAAAAAAAAAAAAAAAAAAAAAAAAAAAAAAAAAAAAAAAAAAAAAAAAAAAAAAAAAAAAAAAAAAAAAAAAAAAAAAAAAAAAAAAAAAAAAAAAAAAAAAAAAAAAAAAAAAAAAAAAAAAAAAAAAAAAAAAAAAAAAAAAAAAAAAAAAAAAAAAAAAAAAAAAAAAAAAAAAAAAAAAAAAAAAAAAAAAAAAAAAAAAAAAAAAAAAAAAAAAAAAAAAAAAAAAAAAAAAAAAAAAAAAAAAAAAAAAAAAAAAAAAAAAAAAAAAAAAAAAAAAAAAAAAAAAAAAAAAAAAAAAAAAAAAAAAAAAAAAAAAAAAAAAAAAAAAAAAAAAAAAAAAAAAAAAAAAAAAAAAAAAAAAAAAAAAAAAAAAAAAAAAAAAAAAAAAAAAAAAAAAAAAAAAAAAAAAAAAAAAAAAAAAAAAAAAAAAAAAAAAAAAAAAAAAAAAAAAAAAAAAAAAAAAAAAAAAAAAAAAAAAAAAAAAAAAAAAAAAAAAAAAAAAAAAAAAAAAAAAAAAAAAAAAAAAAAAAAAAAAAAAAAAAAAAAAAAAAAAAAAAAAAAAAAAAAAAAAAAAAAAAAAAAAAAAAAAAAAAAAAAAAAAAAAAAAAAAAAAAAAAAAAAAAAAAAAAAAAAAAAAAAAAAAAAAAAAAAAAAAAAAAAAAAAAAAAAAAAAAAAAAAAAAAAAAAAAAAAAAAAAAAAAAAAAAAAAAAAAAAAAAAAAAAAAAAAAAAAAAAAAAAAAAAAAAAAAAAAAAAAAAAAAAAAAAAAAAAAAAAAAAAAAAAAAAAAAAAAAAAAAAAAAAAAAAAAAAAAAAAAAAAAAAAAAAAAAAAAAAAAAAAAAAAAAAAAAAAAAAAAAAAAAAAAAAAAAAAAAAAAAAAAAAAAAAAAAAAAAAAAAAAAAAAAAAAAAAAAAAAAAAAAAAAAAAAAAAAAAAAAAAAAAAAAAAAAAAAAAAAAAAAAAAAAAAAAAAAAAAAAAAAAAAAAAAAAAAAAAAAAAAAAAAAAAAAAAAAAAAAAAAAAAAAAAAAAAAAAAAAAAAAAAAAAAAAAAAAAAAAAAAAAAAAAAAAAAAAAAAAAAAAAAAAAAAAAAAAAAAAAAAAAAAAAAAAAAAAAAAAAAAAAAAAAAAAAAAAAAAAAAAAAAAAAAAAAAAAAAAAAAAAAAAAAAAAAAAAAAAAAAAAAAAAAAAAAAAAAAAAAAAAAAAAAAAAAAAAAAAAAAAAAAAAAAAAAAAAAAAAAAAAAAAAAAAAAAAAAAAAAAAAAAAAAAAAAAAAAAAAAAAAAAAAAAAAAAAAAAAAAAAAAAAAAAAAAAAAAAAAAAAAAAAAAAAAAAAAAAAAAAAAAAAAAAAAAAAAAAAAAAAAAAAAAAAAAAAAAAAAAAAAAAAAAAAAAAAAAAAAAAAAAAAAAAAAAAAAAAAAAAAAAAAAAAAAAAAAAAAAAAAAAAAAAAAAAAAAAAAAAAAAAAAAAAAAAAAAAAAAAAAAAAAAAAAAAAAAAAAAAAAAAAAAAAAAAAAAAAAAAAAAAAAAAAAAAAAAAAAAAAAAAAAAAAAAAAAAAAAAAAAAAAAAAAAAAAAAAAAAAAAAAAAAAAAAAAAAAAAAAAAAAAAAAAAAAAAAAAAAAAAAAAAAAAAAAAAAAAAAAAAAAAAAAAAAAAAAAAAAAAAAAAAAAAAAAAAAAAAAAAAAAAAAAAAAAAAAAAAAAAAAAAAAAAAAAAAAAAAAAAAAAAAAAAAAAAAAAAAAAAAAAAAAAAAAAAAAAAAAAAAAAAAAAAAAAAAAAAAAAAAAAAAAAAAAAAAAAAAAAAAAAAAAAAAAAAAAAAAAAAAAAAAAAAAAAAAAAAAAAAAAAAAAAAAAAAAAAAAAAAAAAAAAAAAAAAAAAAAAAAAAAAAAAAAAAAAAAAAAAAAAAAAAAAAAAAAAAAAAAAAAAAAAAAAAAAAAAAAAAAAAAAAAAAAAAAAAAAAAAAAAAAAAAAAAAAAAAAAAAAAAAAAAAAAAAAAAAAAAAAAAAAAAAAAAAAAAAAAAAAAAAAAAAAAAAAAAAAAAAAAAAAAAAAAAAAAAAAAAAAAAAAAAAAAAAAAAAAAAAAAAAAAAAAAAAAAAAAAAAAAAAAAAAAAAAAAAAAAAAAAAAAAAAAAAAAAAAAAAAAAAAAAAAAAAAAAAAAAAAAAAAAAAAAAAAAAAAAAAAAAAAAAAAAAAAAAAAAAAAAAAAAAAAAAAAAAAAAAAAAAAAAAAAAAAAAAAAAAAAAAAAAAAAAAAAAAAAAAAAAAAAAAAAAAAAAAAAAAAAAAAAAAAAAAAAAAAAAAAAAAAAAAAAAAAAAAAAAAAAAAAAAAAAAAAAAAAAAAAAAAAAAAAAAAAAAAAAAAAAAAAAAAAAAAAAAAAAAAAAAAAAAAAAAAAAAAAAAAAAAAAAAAAAAAAAAAAAAAAAAAAAAAAAAAAAAAAAAAAAAAAAAAAAAAAAAAAAAAAAAAAAAAAAAAAAAAAAAAAAAAAAAAAAAAAAAAAAAAAAAAAAAAAAAAAAAAAAAAAAAAAAAAAAAAAAAAAAAAAAAAAAAAAAAAAAAAAAAAAAAAAAAAAAAAAAAAAAAAAAAAAAAAAAAAAAAAAAAAAAAAAAAAAAAAAAAAAAAAAAAAAAAAAAAAAAAAAAAAAAAAAAAAAAAAAAAAAAAAAAAAAAAAAAAAAAAAAAAAAAAAAAAAAAAAAAAAAAAAAAAAAAAAAAAAAAAAAAAAAAAAAAAAAAAAAAAAAAAAAAAAAAAAAAAAAAAAAAAAAAAAAAAAAAAAAAAAAAAAAAAAAAAAAAAAAAAAAAAAAAAAAAAAAAAAAAAAAAAAAAAAAAAAAAAAAAAAAAAAAAAAAAAAAAAAAAAAAAAAAAAAAAAAAAAAAAAAAAAAAAAAAAAAAAAAAAAAAAAAAAAAAAAAAAAAAAAAAAAAAAAAAAAAAAAAAAAAAAAAAAAAAAAAAAAAAAAAAAAAAAAAAAAAAAAAAAAAAAAAAAAAAAAAAAAAAAAAAAAAAAAAAAAAAAAAAAAAAAAAAAAAAAAAAAAAAAAAAAAAAAAAAAAAAAAAAAAAAAAAAAAAAAAAAAAAAAAAAAAAAAAAAAAAAAAAAAAAAAAAAAAAAAAAAAAAAAAAAAAAAAAAAAAAAAAAAAAAAAAAAAAAAAAAAAAAAAAAAAAAAAAAAAAAAAAAAAAAAAAAAAAAAAAAAAAAAAAAAAAAAAAAAAAAAAAAAAAAAAAAAAAAAAAAAAAAAAAAAAAAAAAAAAAAAAAAAAAAAAAAAAAAAAAAAAAAAAAAAAAAAAAAAAAAAAAAAAAAAAAAAAAAAAAAAAAAAAAAAAAAAAAAAAAAAAAAAAAAAAAAAAAAAAAAAAAAAAAAAAAAAAAAAAAAAAAAAAAAAAAAAAAAAAAAAAAAAAAAAAAAAAAAAAAAAAAAAAAAAAAAAAAAAAAAAAAAAAAAAAAAAAAAAAAAAAAAAAAAAAAAAAAAAAAAAAAAAAAAAAAAAAAAAAAAAAAAAAAAAAAAAAAAAAAAAAAAAAAAAAAAAAAAAAAAAAAAAAAAAAAAAAAAAAAAAAAAAAAAAAAAAAAAAAAAAAAAAAAAAAAAAAAAAAAAAAAAAAAAAAAAAAAAAAAAAAAAAAAAAAAAAAAAAAAAAAAAAAAAAAAAAAAAAAAAAAAAAAAAAAAAAAAAAAAAAAAAAAAAAAAAAAAAAAAAAAAAAAAAAAAAAAAAAAAAAAAAAAAAAAAAAAAAAAAAAAAAAAAAAAAAAAAAAAAAAAAAAAAAAAAAAAAAAAAAAAAAAAAAAAAAAAAAAAAAAAAAAAAAAAAAAAAAAAAAAAAAAAAAAAAAAAAAAAAAAAAAAAAAAAAAAAAAAAAAAAAAAAAAAAAAAAAAAAAAAAAAAAAAAAAAAAAAAAAAAAAAAAAAAAAAAAAAAAAAAAAAAAAAAAAAAAAAAAAAAAAAAAAAAAAAAAAAAAAAAAAAAAAAAAAAAAAAAAAAAAAAAAAAAAAAAAAAAAAAAAAAAAAAAAAAAAAAAAAAAAAAAAAAAAAAAAAAAAAAAAAAAAAAAAAAAAAAAAAAAAAAAAAAAAAAAAAAAAAAAAAAAAAAAAAAAAAAAAAAAAAAAAAAAAAAAAAAAAAAAAAAAAAAAAAAAAAAAAAAAAAAAAAAAAAAAAAAAAAAAAAAAAAAAAAAAAAAAAAAAAAAAAAAAAAAAAAAAAAAAAAAAAAAAAAAAAAAAAAAAAAAAAAAAAAAAAAAAAAAAAAAAAAAAAAAAAAAAAAAAAAAAAAAAAAAAAAAAAAAAAAAAAAAAAAAAAAAAAAAAAAAAAAAAAAAAAAAAAAAAAAAAAAAAAAAAAAAAAAAAAAAAAAAAAAAAAAAAAAAAAAAAAAAAAAAAAAAAAAAAAAAAAAAAAAAAAAAAAAAAAAAAAAAAAAAAAAAAAAAAAAAAAAAAAAAAAAAAAAAAAAAAAAAAAAAAAAAAAAAAAAAAAAAAAAAAAAAAAAAAAAAAAAAAAAAAAAAAAAAAAAAAAAAAAAAAAAAAAAAAAAAAAAAAAAAAAAAAAAAAAAAAAAAAAAAAAAAAAAAAAAAAAAAAAAAAAAAAAAAAAAAAAAAAAAAAAAAAAAAAAAAAAAAAAAAAAAAAAAAAAAAAAAAAAAAAAAAAAAAAAAAAAAAAAAAAAAAAAAAAAAAAAAAAAAAAAAAAAAAAAAAAAAAAAAAAAAAAAAAAAAAAAAAAAAAAAAAAAAAAAAAAAAAAAAAAAAAAAAAAAAAAAAAAAAAAAAAAAAAAAAAAAAAAAAAAAAAAAAAAAAAAAAAAAAAAAAAAAAAAAAAAAAAAAAAAAAAAAAAAAAAAAAAAAAAAAAAAAAAAAAAAAAAAAAAAAAAAAAAAAAAAAAAAAAAAAAAAAAAAAAAAAAAAAAAAAAAAAAAAAAAAAAAAAAAAAAAAAAAAAAAAAAAAAAAAAAAAAAAAAAAAAAAAAAAAAAAAAAAAAAAAAAAAAAAAAAAAAAAAAAAAAAAAAAAAAAAAAAAAAAAAAAAAAAAAAAAAAAAAAAAAAAAAAAAAAAAAAAAAAAAAAAAAAAAAAAAAAAAAAAAAAAAAAAAAAAAAAAAAAAAAAAAAAAAAAAAAAAAAAAAAAAAAAAAAAAAAAAAAAAAAAAAAAAAAAAAAAAAAAAAAAAAAAAAAAAAAAAAAAAAAAAAAAAAAAAAAAAAAAAAAAAAAAAAAAAAAAAAAAAAAAAAAAAAAAAAAAAAAAAAAAAAAAAAAAAAAAAAAAAAAAAAAAAAAAAAAAAAAAAAAAAAAAAAAAAAAAAAAAAAAAAAAAAAAAAAAAAAAAAAAAAAAAAAAAAAAAAAAAAAAAAAAAAAAAAAAAAAAAAAAAAAAAAAAAAAAAAAAAAAAAAAAAAAAAAAAAAAAAAAAAAAAAAAAAAAAAAAAAAAAAAAAAAAAAAAAAAAAAAAAAAAAAAAAAAAAAAAAAAAAAAAAAAAAAAAAAAAAAAAAAAAAAAAAAAAAAAAAAAAAAAAAAAAAAAAAAAAAAAAAAAAAAAAAAAAAAAAAAAAAAAAAAAAAAAAAAAAAAAAAAAAAAAAAAAAAAAAAAAAAAAAAAAAAAAAAAAAAAAAAAAAAAAAAAAAAAAAAAAAAAAAAAAAAAAAAAAAAAAAAAAAAAAAAAAAAAAAAAAAAAAAAAAAAAAAAAAAAAAAAAAAAAAAAAAAAAAAAAAAAAAAAAAAAAAAAAAAAAAAAAAAAAAAAAAAAAAAAAAAAAAAAAAAAAAAAAAAAAAAAAAAAAAAAAAAAAAAAAAAAAAAAAAAAAAAAAAAAAAAAAAAAAAAAAAAAAAAAAAAAAAAAAAAAAAAAAAAAAAAAAAAAAAAAAAAAAAAAAAAAAAAAAAAAAAAAAAAAAAAAAAAAAAAAAAAAAAAAAAAAAAAAAAAAAAAAAAAAAAAAAAAAAAAAAAAAAAAAAAAAAAAAAAAAAAAAAAAAAAAAAAAAAAAAAAAAAAAAAAAAAAAAAAAAAAAAAAAAAAAAAAAAAAAAAAAAAAAAAAAAAAAAAAAAAAAAAAAAAAAAAAAAAAAAAAAAAAAAAAAAAAAAAAAAAAAAAAAAAAAAAAAAAAAAAAAAAAAAAAAAAAAAAAAAAAAAAAAAAAAAAAAAAAAAAAAAAAAAAAAAAAAAAAAAAAAAAAAAAAAAAAAAAAAAAAAAAAAAAAAAAAAAAAAAAAAAAAAAAAAAAAAAAAAAAAAAAAAAAAAAAAAAAAAAAAAAAAAAAAAAAAAAAAAAAAAAAAAAAAAAAAAAAAAAAAAAAAAAAAAAAAAAAAAAAAAAAAAAAAAAAAAAAAAAAAAAAAAAAAAAAAAAAAAAAAAAAAAAAAAAAAAAAAAAAAAAAAAAAAAAAAAAAAAAAAAAAAAAAAAAAAAAAAAAAAAAAAAAAAAAAAAAAAAAAAAAAAAAAAAAAAAAAAAAAAAAAAAAAAAAAAAAAAAAAAAAAAAAAAAAAAAAAAAAAAAAAAAAAAAAAAAAAAAAAAAAAAAAAAAAAAAAAAAAAAAAAAAAAAAAAAAAAAAAAAAAAAAAAAAAAAAAAAAAAAAAAAAAAAAAAAAAAAAAAAAAAAAAAAAAAAAAAAAAAAAAAAAAAAAAAAAAAAAAAAAAAAAAAAAAAAAAAAAAAAAAAAAAAAAAAAAAAAAAAAAAAAAAAAAAAAAAAAAAAAAAAAAAAAAAAAAAAAAAAAAAAAAAAAAAAAAAAAAAAAAAAAAAAAAAAAAAAAAAAAAAAAAAAAAAAAAAAAAAAAAAAAAAAAAAAAAAAAAAAAAAAAAAAAAAAAAAAAAAAAAAAAAAAAAAAAAAAAAAAAAAAAAAAAAAAAAAAAAAAAAAAAAAAAAAAAAAAAAAAAAAAAAAAAAAAAAAAAAAAAAAAAAAAAAAAAAAAAAAAAAAAAAAAAAAAAAAAAAAAAAAAAAAAAAAAAAAAAAAAAAAAAAAAAAAAAAAAAAAAAAAAAAAAAAAAAAAAAAAAAAAAAAAAAAAAAAAAAAAAAAAAAAAAAAAAAAAAAAAAAAAAAAAAAAAAAAAAAAAAAAAAAAAAAAAAAAAAAAAAAAAAAAAAAAAAAAAAAAAAAAAAAAAAAAAAAAAAAAAAAAAAAAAAAAAAAAAAAAAAAAAAAAAAAAAAAAAAAAAAAAAAAAAAAAAAAAAAAAAAAAAAAAAAAAAAAAAAAAAAAAAAAAAAAAAAAAAAAAAAAAAAAAAAAAAAAAAAAAAAAAAAAAAAAAAAAAAAAAAAAAAAAAAAAAAAAAAAAAAAAAAAAAAAAAAAAAAAAAAAAAAAAAAAAAAAAAAAAAAAAAAAAAAAAAAAAAAAAAAAAAAAAAAAAAAAAAAAAAAAAAAAAAAAAAAAAAAAAAAAAAAAAAAAAAAAAAAAAAAAAAAAAAAAAAAAAAAAAAAAAAAAAAAAAAAAAAAAAAAAAAAAAAAAAAAAAAAAAAAAAAAAAAAAAAAAAAAAAAAAAAAAAAAAAAAAAAAAAAAAAAAAAAAAAAAAAAAAAAAAAAAAAAAAAAAAAAAAAAAAAAAAAAAAAAAAAAAAAAAAAAAAAAAAAAAAAAAAAAAAAAAAAAAAAAAAAAAAAAAAAAAAAAAAAAAAAAAAAAAAAAAAAAAAAAAAAAAAAAAAAAAAAAAAAAAAAAAAAAAAAAAAAAAAAAAAAAAAAAAAAAAAAAAAAAAAAAAAAAAAAAAAAAAAAAAAAAAAAAAAAAAAAAAAAAAAAAAAAAAAAAAAAAAAAAAAAAAAAAAAAAAAAAAAAAAAAAAAAAAAAAAAAAAAAAAAAAAAAAAAAAAAAAAAAAAAAAAAAAAAAAAAAAAAAAAAAAAAAAAAAAAAAAAAAAAAAAAAAAAAAAAAAAAAAAAAAAAAAAAAAAAAAAAAAAAAAAAAAAAAAAAAAAAAAAAAAAAAAAAAAAAAAAAAAAAAAAAAAAAAAAAAAAAAAAAAAAAAAAAAAAAAAAAAAAAAAAAAAAAAAAAAAAAAAAAAAAAAAAAAAAAAAAAAAAAAAAAAAAAAAAAAAAAAAAAAAAAAAAAAAAAAAAAAAAAAAAAAAAAAAAAAAAAAAAAAAAAAAAAAAAAAAAAAAAAAAAAAAAAAAAAAAAAAAAAAAAAAAAAAAAAAAAAAAAAAAAAAAAAAAAAAAAAAAAAAAAAAAAAAAAAAAAAAAAAAAAAAAAAAAAAAAAAAAAAAAAAAAAAAAAAAAAAAAAAAAAAAAAAAAAAAAAAAAAAAAAAAAAAAAAAAAAAAAAAAAAAAAAAAAAAAAAAAAAAAAAAAAAAAAAAAAAAAAAAAAAAAAAAAAAAAAAAAAAAAAAAAAAAAAAAAAAAAAAAAAAAAAAAAAAAAAAAAAAAAAAAAAAAAAAAAAAAAAAAAAAAAAAAAAAAAAAAAAAAAAAAAAAAAAAAAAAAAAAAAAAAAAAAAAAAAAAAAAAAAAAAAAAAAAAAAAAAAAAAAAAAAAAAAAAAAAAAAAAAAAAAAAAAAAAAAAAAAAAAAAAAAAAAAAAAAAAAAAAAAAAAAAAAAAAAAAAAAAAAAAAAAAAAAAAAAAAAAAAAAAAAAAAAAAAAAAAAAAAAAAAAAAAAAAAAAAAAAAAAAAAAAAAAAAAAAAAAAAAAAAAAAAAAAAAAAAAAAAAAAAAAAAAAAAAAAAAAAAAAAAAAAAAAAAAAAAAAAAAAAAAAAAAAAAAAAAAAAAAAAAAAAAAAAAAAAAAA9lhACgMAq3nobYYE6rD1FkcpgmCTD9WnBvgFAMpNP01DCYcBXdIagOq9k67GhTWwQtODxAX1GvKVUVLOMGGlrhM+DQ==</c2pa:manifest></metadata>
  <!-- Generator: Adobe Illustrator 30.8.1, SVG Export Plug-In . SVG Version: 2.1.4 Build 1)  -->
  <defs>
    <style>
      .st0 {
        fill: #111;
      }
    </style>
  </defs>
  <path class="st0" d="M203.25,1523.66l19.05-5.57,16.77-10.4,15.16-13.42,15.06-13.52,14.74-13.84,13.37-15.08,14.24-14.32,14.89-13.72,15.21-13.39,8.98-16.78,12.35-15.83,13.37-15.13,13.04-15.41,12.68-15.71,12.27-16.05,11.82-16.41,11.32-16.78,11.03-17,11-17.06,10.95-17.1,10.92-17.15,10.79-17.27,10.73-17.35,10.71-17.39,10.68-17.46,10.66-17.51,10.54-17.63,10.42-17.78,10.28-17.93,10.13-18.1,9.96-18.27,9.82-18.46,9.77-18.58,9.92-18.58,9.49-18.96,8.44-19.71,7.96-20.11,8.62-19.91,7.66-20.55,6.69-21.15,6.97-21.19,7.26-21.22,7.58-21.23,7.56-21.37,7.89-21.38,8.25-21.35,8.63-21.29,8.99-21.26,9.04-21.34,8.78-21.53,8.65-21.65,9.09-21.54,9.53-21.44,9.63-21.41,7.79-21.96,8.24-21.87,8.08-21.87,7.72-21.92,8.19-21.82,8.67-21.71,9.02-21.6,9.25-21.53,6.55-21.6,9.86-21.15,9.74-21.1,11-21.01,9.67-21.15,9-21.11,9.06-21.02,10.31-20.86,10.28-20.74,8.81-20.7,9.17-20.6,9.32-20.5,9.21-20.37,8.82-20.25,8.45-20.1,8.51-19.98,7.65-19.76,4.53-18.61-13.45,2.55-2.47,18.48.25,20.28.71,20.26-1.39,20.39-1.96,20.38-2.5,20.38-3.03,20.34-3.53,20.29-3.98,20.23-4.42,20.17-4.82,20.1-5.17,20.02-5.42,19.96-5.36,19.98-5.29,19.99-5.21,20-5.14,20.01-5.07,20.02-5.34,19.95-6,19.77-6.55,19.58-6.99,19.42-7.31,19.27-7.56,19.16-7.69,19.07-7.93,18.94-8.53,18.61-9.29,18.15-10.15,17.54-11.06,16.8-11.49,16.36-11.2,16.51-11.12,16.47-11.3,16.23-11.71,15.74-12.31,15.02-12.36,14.81-11.89,15.17-11.82,15.07-12.23,14.52-13.04,13.47-13.83,12.33-13.95,12.02-14.05,11.74-15.22,9.86-15.35,9.5-15.49,9.13-15.7,8.63-15.93,8.09-16.19,7.53-16.43,6.93-16.68,6.31-16.95,5.65-17.35,4.6-17.85,3.22-17.22,4.63-17.29,4.34-17.66,3.38-17.97,2.43-18.21,1.55-18.42.73-18.59-.03-18.69-.67-18.75-1.12-18.79-1.55-18.82-2.01-18.84-2.45-18.87-2.93-18.97-3.86-18.97-4.31-18.96-4.77-18.93-5.22-18.92-5.68-18.87-6.14-18.92-7.75-18.87-8.56-18.77-8.93-18.54-8.41-9.82,1.77,153.52,687.03Z"/>
  <path class="st0" d="M1300.99,1872.07l-7.87-19.16-6.69-20.06-6.77-20.02-6.85-19.99-6.58-20.11-6.17-20.27-5.8-20.42-5.48-20.53-5.21-20.62-4.83-20.74-3.22-21.13-1.92-21.35-1.43-21.4-1.72-21.36-1.98-21.31-2.06-21.3-2.14-21.29-1.77-21.29-.05-21.37-.14-21.36-.2-21.33-.17-21.3.25-21.27.62-21.22.92-21.15,1.13-21.09,1.2-21.03,1.19-20.98,1.1-20.94,1.61-20.81,4.48-19.98-.48-19.49,1.55-20.6,1.56-20.51,1.48-20.43,1.81-20.27,2.92-19.93,4.39-19.39,5.44-18.9,5.65-18.7,5.85-18.51,6.99-17.91,7.59-17.53,7.85-17.31,8.31-16.97,11.29-15.14,11.68-14.8,11.63-14.77,11.09-15.06,10.21-15.52,15.08-11.81,14.04-12.73,14.65-12.09,16.03-10.77,14.87-11.8,16.03-10.67,16.37-10.26,16.65-9.9,16.94-9.52,17.21-9.15,17.49-8.77,17.76-8.38,18.04-7.95,19.64-5.87,19.85-5.43,19.95-5.15,20.1-4.79,20.29-4.35,20.29-4.19,20.4-3.86,20.73-3.19,21.37-1.96,21.99-.6,22.27.2,22.38.69-16.05-4.98-18.04-7.36-9.96-5.98-12.37-2.77-17.67,11.02-17.62,11.09-17.57,11.18-17.52,11.25-17.34,11.52-16.97,12.05-16.92,12.14-16.9,12.17-16.88,12.23-16.82,12.3-16.79,12.37-16.75,12.44-16.74,12.49-16.78,12.44-16.75,12.5-16.68,12.61-16.65,12.68-16.63,12.75-17.09,12.1-17.26,11.89-16.09,13.53-16.06,13.64-16.04,13.69-15.3,14.6-14.73,15.36-15.27,14.84-15.6,14.52-15.71,14.48-14.78,15.6-13.61,17-13.73,17.05-13.84,17.08-13.49,17.57-12.34,18.76-14.13,17.35-13.75,17.92-12.77,18.94-12.18,19.56-11.91,19.88-11.96,20-12.33,19.9-12.72,19.76-13.33,19.45-14.51,18.72-14.32,18.95-13.96,19.27-14.39,19.05-14.8,18.83-15.12,18.65-15.4,18.49-15.61,18.37-15.77,18.27-15.89,18.19-16.17,18-16.58,17.7-17,17.41-16.96,17.4-17.85,16.76-19.82,15.18-17.39,16.86-14.13,18.29-19.98,15-19.61,15.28-19.91,14.98-19.12,15.43-19.06,15.38-20.41,14.36-21.33,13.59-20.38,14.16-19.65,14.51-18.29,15.08-16.91,15.52-18.62,14.69-9.78,15.73,5.12,12.86,17.01-1.78-18.35,14.97,6.26,3.13,9.89-18.68-10.48,11.3,11.11-5.99,715.89,15.74Z"/>
  <path class="st0" d="M1469.18,755.46l5.16-24.97,1.7-25.35-4.75-25.29-9.06-24.49-13.01-23.16-16.62-21.36-19.66-19.28-22.09-17.11-23.99-14.97-25.42-12.93-26.73-10.64-28.12-7.64-29.02-4.8-29.52-2.31-29.72-.12-29.78,2.81-29.56,5.37-29.21,7.16-28.96,7.7-12.16-17.5-7.44-25.73-9.11-24.86-11.21-23.59-13.56-21.92-17.26-18.59-22-12.82-24.78-7.62-26.19-3.17-27.14,4.96-26.2,12-24.42,16.48-21.78,20.63-18.23,24.38-13.79,27.43-8.68,29.55-4.78,30.39-1.49,30.62,1.78,30.47,4.94,29.99,7.9,29.21,6.65,27.26-21.31,19.81-21.24,19.53-21.2,19.19-20.31,19.85-18.77,21.35-18.49,21.31-18.62,20.85-18.56,20.59-16.82,21.99-15.52,22.8-13.66,23.89-11.11,25.17-13.98,23.11-7.78,26.22-9.88,25.17-4.92,26.68-3.3,26.94-3.79,26.65-4.14,26.39-1.19,26.69.24,26.62,1.44,26.51,2.52,26.31,3.55,26.11,4.56,25.84,5.64,25.53,6.85,25.15,8.25,24.65,9.93,24,11.98,23.07,14.18,21.86,15.75,20.82,16.94,19.86,17.77,19.06,18.33,18.42,19.82,16.9,21.42,15.11,21.45,14.8,21.31,14.66,22.32,13.18,23.41,11.44,23.9,10.18,25.68,6.66,26.26,4.75,27.05,1.52,27.26-.28,27.29-2.91,26.79-10.83,25.26-15.47,23.66-18.36,22.13-20.45,20.49-22.28,18.5-24.12,16.32-25.78,14.02-27.17,11.58-28.35,8.95-29.31,6.18-30.03,3.7-30.41,1.56-30.56-.24-30.56-1.63-30.46-2.6-30.35-3.47-30.2-5.2-29.9-7.16-29.45-9.21-28.84-11.19-28.09-12.44-27.49-13.51-26.88-14.78-26.11-15.65-25.46-15.51-25.3-15.19-25.23-14.7-25.26-14.56-25.15-14.01-25.32-13.33-25.6-12.64-25.89-10.73-26.8-7.3-28.19-3.74-29.21-.25-29.85,27.46-9.18,31.92-5.4,32.25-4.89,32.58-2.92,32.89-.75,32.97,1.33,33,3.42,33.04,4.47,32.76,6.98,32.8,7.7,2.35,23.61-8.24,28.28-9.16,28.04-9.76,27.88-10,27.86-9.86,27.99-9.57,28.18-8.99,28.51-8.89,28.68-8.3,29.01-4.33,30.35-4.54,30.58,4.16,31.08,9.58,30.46,16.12,27.37,20.71,23.47,22.64,21.03,24.5,17.75,26.13,13.67,26.88,10.54,27.24,7.69,27.33,4.71,27.03.9,26.16-3.55,24.51-8.3,22.12-12.62-20.78-425.34ZM909.42,856.69l14.08,6.51,14.04,6.65,13.96,6.88,13.85,7.15,13.85,7.24,13.87,7.35,13.84,7.49,13.83,7.64,13.8,7.82,13.75,8.04,13.62,8.35,13.44,8.71,13.22,9.11,12.95,9.56,12.64,10.03,12.29,10.53,11.87,11.06,11.41,11.6,10.92,12.15,10.37,12.67,9.81,13.2,9.23,13.68,8.64,14.13,8.07,14.55,7.49,14.93,6.93,15.26,6.41,15.55,5.94,15.81,5.44,16.05,4.92,16.28,4.39,16.5,3.81,16.72,3.21,16.94,2.58,17.11,1.93,17.29,1.27,17.46.59,17.57-.34,17.69-2.41,17.81-3.11,17.78-3.86,17.72-4.68,17.64-5.54,17.49-6.46,17.27-7.44,16.99-8.45,16.64-9.49,16.17-10.45,15.67-11.22,15.21-11.93,14.75-12.64,14.23-13.34,13.66-14.06,12.99-14.78,12.22-15.54,11.26-16.32,10.08-17.1,8.52-17.79,6.42-18.2,3.67-18.29,2.52-18.4,2.36-18.46,1.86-18.41.57-18.29-.58-18.13-1.59-17.94-2.5-17.72-3.34-17.5-4.12-17.22-4.89-16.91-5.66-16.53-6.45-16.08-7.27-15.51-8.16-15.22-8.62-15.23-8.76-15.22-8.89-14.92-9.35-14.4-10-14.4-10.13-14.38-10.28-12.91-11.61-12.66-11.92-12.63-12.04-12.33-12.36-11.9-12.74-11.38-13.16-10.82-13.55-10.2-13.97-9.52-14.37-8.78-14.75-8.01-15.09-7.22-15.41-6.43-15.68-5.63-15.91-4.9-16.09-4.33-16.23-3.8-16.34-3.28-16.43-2.75-16.51-2.24-16.57-1.71-16.63-1.18-16.65-.67-16.68-.16-16.67.34-16.67.83-16.65,1.31-16.61,1.77-16.57,2.24-16.52,2.75-16.43,4.1-16.02,5.23-15.59,5.64-15.45,5.61-15.53,5.72-15.55,5.8-15.59,5.94-15.59,6.43-15.41,7.47-14.83,8.89-13.85,9.49-13.42,9.6-13.42,10.34-12.73,11.73-11.29,11.53-11.59,10.29-13.13,11.33-12.1,12.14-11.21,12.76-10.44,13.25-9.77,13.65-9.19,13.99-8.66,14.28-8.22,14.54-7.8,14.76-7.45,14.96-7.12,15.16-6.81,15.31-6.56,15.48-6.31,15.65-6,15.83-5.63,16.02-5.22,16.21-4.74,16.39-4.21,16.55-3.64,16.71-3.1,16.81-2.87,12.01,2.44.27,15.32,1.01,15.28,1.76,15.24,2.45,15.14,3.1,15.05,3.68,14.92,4.18,14.81,4.6,14.7,4.96,14.61,5.21,14.54,5.37,14.51,5.45,14.48-111.41-2.41ZM920.35,593.76l-3.14,3.03-3.17,2.96-3.2,2.91-3.21,2.88-3.21,2.89-3.19,2.91-3.17,2.97-3.12,3.04-3.06,3.14-3,3.26-2.91,3.37-2.81,3.51-3.27,2.63-3.48,2.31-3.34,2.6-3.21,2.86-3.11,3.05-3,3.19-2.96,3.28-2.95,3.29-2.97,3.25-2.99,3.22-3,3.18-3.03,3.15-3.05,3.12-3.06,3.07-3.1,3.05-3.11,3-3.14,2.98-3.15,2.92-3.17,2.9-3.19,2.85-3.21,2.82-3.24,2.78-1.44-3.27-.44-6.18-.28-6.24-.12-6.29.04-6.34.23-6.38.4-6.44.57-6.47.74-6.5.94-6.55,1.11-6.56,1.3-6.59,1.49-6.61,1.68-6.61,1.88-6.63,2.07-6.62,2.27-6.62,2.46-6.62,2.67-6.6,2.86-6.58,3.05-6.55,3.25-6.52,3.45-6.49,3.63-6.44,3.83-6.41,4.01-6.34,4.2-6.29,4.39-6.22,4.58-6.16,4.75-6.08,4.99-5.99,5.25-5.87,5.5-5.73,5.76-5.59,6-5.43,6.24-5.27,6.46-5.08,6.69-4.89,6.9-4.7,7.1-4.49,7.29-4.27,7.47-4.05,7.64-3.82,7.8-3.59,7.95-3.33,8.09-3.1,8.21-2.83,8.33-2.57,8.44-2.3,8.52-2.02,8.61-1.75,8.67-1.45,8.73-1.17,8.78-.88,8.8-.59,8.82-.29h8.82s8.81.31,8.81.31l8.79.59,8.75.89,8.71,1.18,8.62,1.55,8.51,1.92,8.37,2.28,8.23,2.62,8.07,2.96,7.9,3.26,7.72,3.55,7.52,3.83,7.33,4.1,7.12,4.34,6.9,4.59,6.67,4.8,6.44,5.02,6.19,5.22,5.94,5.43,5.69,5.6,5.42,5.77,5.13,5.93,4.85,6.09,4.54,6.22,4.21,6.35,3.92,6.46,3.71,6.52,3.51,6.6,3.28,6.65,3.06,6.7,2.83,6.75,2.62,6.79,2.41,6.81,2.2,6.85,2.01,6.86,1.84,6.88,1.67,6.88,1.52,6.89,1.35,6.89,1.23,6.89,1.09,6.88.96,6.89.84,6.88.73,6.87.61,6.87.51,6.86.42,6.85.31,6.85.23,6.83.13,6.83-3.35,1.4-4.33-.12-4.33-.11-4.33-.1-4.34-.1-4.34-.09-4.35-.09-4.34-.06-4.36-.06-4.35-.04-4.36-.04-4.36-.03-4.37-.02h-4.37s-4.37-.02-4.37-.02h-17.49s-293.16-86.08-293.16-86.08ZM1436.46,814.26l-3.49,8.49-3.89,8.23-4.28,7.96-4.63,7.67-4.98,7.37-5.31,7.06-5.62,6.73-5.91,6.4-6.19,6.04-5.99,6.29-5.99,6.32-6.4,5.78-6.71,5.29-6.98,4.84-7.16,4.46-7.3,4.16-7.38,3.94-7.44,3.82-7.48,3.71-7.64,3.19-7.8,2.6-7.91,2.02-7.98,1.53-8,1.11-8.01.82-8,.61-8,.34-7.96-.06-7.89-.53-7.79-1.05-7.61-1.67-7.37-2.29-7.04-2.96-6.63-3.58-6.19-4.15-5.78-4.59-5.72-4.64-5.42-4.89-4.74-5.43-3.7-6.02-2.99-6.34-2.72-6.43-2.45-6.5-2.18-6.57-1.9-6.63-1.63-6.69-1.37-6.73-1.1-6.78-.82-6.8-.56-6.83-.3-6.86-.05-6.86.16-6.87.26-6.86.35-6.86.47-6.86.57-6.84.67-6.84.78-6.83.88-6.83.97-6.8,1.05-6.8,1.16-6.79,1.27-6.77,1.38-6.76,1.48-6.76,1.59-6.74,1.7-6.72,1.8-6.71,1.91-6.7,2.02-6.66,2.13-6.65,2.22-6.64,1.78-6.62,1.85-6.61,1.97-6.6,2.06-6.59,2.18-6.56,2.28-6.55,2.4-6.52,2.49-6.51,2.61-6.48,2.72-6.45,10.53.96,10.45,2.12,10.35,2.67,10.38,2.63,10.4,2.58,10.39,2.73,10.36,2.91,10.34,3.11,10.3,3.32,10.24,3.57,10.18,3.83,10.1,4.1,10.01,4.4,9.9,4.71,9.76,5.03,9.62,5.36,9.45,5.71,9.31,5.98,9.17,6.22,9.03,6.46,8.87,6.71,8.7,6.98,8.5,7.22,8.31,7.48,8.08,7.75,7.85,8,7.6,8.24,7.34,8.49,7.07,8.73,6.79,8.95,6.51,9.17,6.26,9.35,5.98,9.53,5.71,9.7,5.43,9.86,5.15,10.02,4.86,10.15,4.57,10.29,4.26,10.4,3.96,10.52,3.64,10.63,3.31,10.73,2.99,10.8,2.64,10.88,2.3,10.94,1.92,11,1.56,11.03,1.17,11.04.77,11.05.35,11.03-.1,10.99-.56,10.92-1,10.83-1.42,10.74-1.82,10.62-2.21,10.5-2.59,10.35-2.96,10.21-3.3,10.04-3.64,9.87-4.13,9.58-4.87,9.02-5.43,8.52-5.83,8.14-6.09,7.86-6.24,7.71-6.3,7.69-6.3,7.72-6.57,7.39-6.87,7.01-7.14,6.62-7.37,6.22-7.62,5.8-7.81,5.37-8.02,4.94-8.18,4.5-8.3,3.99,11.12-385.33Z"/>
  <path class="st0" d="M1461.75,936.03l-48.77-6.97-48.87-3.81-48.86-4.92-48.89-4.34-48.91-3.41-48.88-2.02-48.57,3.96-48.26,6.21-48.13,5.87-48.27,2.52-47.81,2.4-47.42,1.15-47.29-.58-47.19-2.31-47.1-3.7-22.43-10.97,39.64-26.55,39.44-27.72,41.13-25.9,42.16-25.4,43.8-23.47,42.6-26.8,45.66-22.35,46.62-21.22,42.18-21.45-44.21,13.74-44.52,20.81-43.93,21.16-42.41,23.36-42.1,22.7-41.82,21.83-41.13,21.86-40.32,22.39-41.17,19.73,15.67-32.91,29.58-39.84,30-40.43,23.51-40.1-31.47,33.31-28.48,38.18-28.4,37.39-12.06-9.43,5.98-51.17,10.78-50.79,11.59-50.99,13.03-50.98-4.05-36.71-6.22,49.11-10.03,48.76-10.87,48.22-9.1,48.24-5.34,48.58-11.06,6.18-10.93-50.44-9.59-50.95-14.16-31.02,9.64,48.79,10.95,48.43,3.46,31.24-26.2-43.22-28.91-40.95-25.12-44.08-22.98-45.35,1.45,18.38,25.39,42.54,27.88,40.62,29.33,39.49,26.79,41.41-25.58-2.67-43.23-19.38-42.89-19.13,29.87,20.95,44.1,18.79,9.04,15.09-44.5,7.27-45.06,3.58-45.24,1.5-45.29-.02-45.38-1.89,34.2,8.05,46.71-3.04,46.69-3.84,46.67-4.66,46.39-7.28,38.48-3.84-35.26,28.47-35.74,27.14-36.09,26.1,18.41-1.3,37.08-29.3,36.77-30.36,21.19-2.77-17.71,43.27-19.29,41.84-23.26,38.85-25.11,37.19-24.38,37.23-22.4,38.12,16.95-10.15,22.39-41.38,25.67-39.64,26.11-39.75,24.07-41.73,21.09-44.29,21.33-44.96,1.58,44.15-.24,48.13-2.64,47.18-3.61,46.57-3.3,46.08,12.43-8.74,3.45-48.35,4.7-48.79,2.34-49.74,4.51-50.13,2.12-50.86,21.31,42.01,21.99,43.71,23.99,42.51,21.92,43.32,23.66,41.96,19.93,43.11,15.82,41.73,19.15,42.66,17.62,43.17,16.03,43.73,13.55,44.63,8.8,46.2,10.03,45.64,8.5,46.04,6.33-12.49-13.07-45.6-9.83-46.67-12.19-46-15.89-44.79-16.39-44.66-17.05-44.52-16.97-44.71-13.58-45.91-18.46-44.98-18.64-45.53-18.53-45.92-17.09-46.68-13.13-48.22,21.56,1.46,36.46,31.07,38.16,28.92,38.98,27.9,39.3,27.8,39.62,28.12,39.24,29.28,40.26,27.87,40.53,27.63,37.15,32.51,33.86,36.45,32.41,37.92,30.89,39.38,29.05,40.68,29.69,40.16,26.84,24.15,104.08-367.91Z"/>
</svg>